<svg width="366" height="366" viewBox="0 0 366 366" fill="none" xmlns="http://www.w3.org/2000/svg">
<path d="M339.428 51.0576H261.28V132.522H339.428V51.0576Z" fill="#E0E0E0"/>
<path d="M334.136 51.0576H255.988V132.522H334.136V51.0576Z" fill="#FAFAFA"/>
<path d="M334.158 132.543H255.958V51.0276H334.158V132.543ZM256.01 132.492H334.107V51.0788H256.01V132.492Z" fill="#E0E0E0"/>
<path d="M323.632 62.0076H266.492V121.57H323.632V62.0076Z" fill="#FAFAFA"/>
<path d="M266.492 121.958C266.089 122.56 265.614 123.111 265.079 123.598C264.171 124.564 262.883 125.867 261.419 127.258C259.955 128.649 258.66 129.937 257.686 130.83C257.194 131.353 256.641 131.815 256.039 132.206C256.442 131.611 256.911 131.063 257.437 130.574C258.352 129.615 259.633 128.305 261.097 126.914C262.561 125.523 263.864 124.235 264.838 123.335C265.333 122.812 265.888 122.351 266.492 121.958Z" fill="#E0E0E0"/>
<path d="M323.632 121.812C324.228 122.219 324.776 122.693 325.264 123.225C326.23 124.14 327.533 125.421 328.924 126.885C330.315 128.349 331.603 129.644 332.504 130.618C333.026 131.111 333.486 131.666 333.873 132.272C333.278 131.865 332.731 131.394 332.24 130.867C331.281 129.952 329.971 128.671 328.58 127.207C327.189 125.743 325.901 124.44 325.008 123.466C324.478 122.978 324.016 122.422 323.632 121.812Z" fill="#E0E0E0"/>
<path d="M323.471 62.1613C323.878 61.5632 324.352 61.0132 324.883 60.5217C325.791 59.5627 327.079 58.2598 328.543 56.8617C330.007 55.4635 331.303 54.1899 332.277 53.2895C332.774 52.769 333.329 52.3073 333.931 51.9133C333.529 52.511 333.057 53.0589 332.526 53.5457C331.611 54.5119 330.33 55.8149 328.866 57.2057C327.402 58.5965 326.099 59.8921 325.125 60.7852C324.635 61.3129 324.079 61.7754 323.471 62.1613Z" fill="#E0E0E0"/>
<path d="M266.338 62.3082C265.738 61.9065 265.187 61.4347 264.698 60.9027C263.732 59.9877 262.429 58.7067 261.038 57.2427C259.648 55.7787 258.359 54.4904 257.459 53.5169C256.938 53.0219 256.479 52.4665 256.09 51.8625C256.687 52.2666 257.234 52.7382 257.722 53.268C258.681 54.1757 259.992 55.464 261.382 56.928C262.773 58.392 264.062 59.6949 264.962 60.6685C265.482 61.1602 265.944 61.7104 266.338 62.3082Z" fill="#E0E0E0"/>
<path d="M323.471 121.563C323.471 121.563 323.471 121.461 323.471 121.278C323.471 121.095 323.471 120.802 323.471 120.443C323.471 119.711 323.471 118.621 323.471 117.23C323.471 114.404 323.471 110.305 323.412 105.093C323.412 94.6624 323.346 79.7954 323.302 62.0078L323.522 62.2274H266.55L266.799 61.9786C266.799 83.8361 266.799 104.288 266.799 121.534L266.58 121.322L307.835 121.432L319.423 121.49H322.49H323.28H323.559C323.476 121.497 323.392 121.497 323.31 121.49H322.541H319.518L307.974 121.549L266.58 121.659H266.36V121.439C266.36 104.193 266.36 83.7409 266.323 61.8834V61.6272H266.587H323.559H323.778V61.8468C323.734 79.693 323.698 94.6038 323.668 105.071C323.668 110.261 323.624 114.353 323.61 117.157C323.61 118.533 323.61 119.594 323.61 120.334C323.61 120.678 323.61 120.941 323.61 121.139C323.584 121.286 323.537 121.429 323.471 121.563Z" fill="#E0E0E0"/>
<path d="M296.731 85.3734C295.702 83.849 294.281 82.6296 292.619 81.8431C290.956 81.0566 289.113 80.7321 287.281 80.9035C285.45 81.075 283.699 81.7361 282.211 82.8175C280.723 83.8989 279.554 85.3608 278.826 87.0497C278.257 88.4888 277.977 90.026 278.002 91.5734C278.027 93.1208 278.357 94.6481 278.972 96.068C280.23 98.9067 282.278 101.323 284.872 103.029C291.556 107.582 301.24 107.377 307.455 102.202C309.847 100.34 311.475 97.6654 312.03 94.6845C312.284 92.9538 312.049 91.1863 311.35 89.5827C310.65 87.9791 309.516 86.6037 308.074 85.6127C306.633 84.6217 304.942 84.0547 303.194 83.9762C301.447 83.8976 299.712 84.3107 298.187 85.1685" fill="#E0E0E0"/>
<path d="M296.76 85.3658C296.539 84.5555 296.039 83.8494 295.348 83.3725C294.657 82.8955 293.819 82.6785 292.983 82.7599L295.216 85.4171C294.604 85.5047 294.026 85.7546 293.544 86.1408C293.061 86.527 292.69 87.0353 292.471 87.6131C292.361 87.8839 292.332 88.2645 292.588 88.4036C292.681 88.4318 292.779 88.4412 292.875 88.4311C292.972 88.421 293.066 88.3918 293.151 88.3451L295.867 87.2178C296.054 88.7342 296.61 90.1817 297.485 91.4341C298.108 90.1045 298.456 88.6631 298.51 87.1958L301.511 88.5207C301.27 87.664 300.778 86.899 300.098 86.3247C300.987 86.1517 301.838 85.8194 302.609 85.3439C302.843 85.1975 303.099 84.9486 302.989 84.6997C302.88 84.4508 302.667 84.4508 302.455 84.4362C300.473 84.2439 298.48 84.6574 296.738 85.622" fill="#EBEBEB"/>
<path d="M296.562 86.486C297.032 83.4496 296.781 80.3455 295.83 77.4238C296.562 77.2628 297.426 77.1603 297.887 77.724C298.123 78.0829 298.229 78.5117 298.187 78.9391C298.222 81.8027 297.677 84.6438 296.584 87.2912" fill="#EBEBEB"/>
<path d="M281.988 97.3562C281.809 97.2246 281.651 97.0666 281.52 96.8877C281.133 96.4197 280.796 95.9118 280.517 95.3724C279.564 93.5827 279.227 91.5291 279.558 89.5286C279.888 87.5282 280.869 85.6923 282.347 84.3046C282.793 83.8841 283.284 83.5135 283.811 83.1993C283.99 83.0686 284.191 82.9696 284.404 82.9065C283.748 83.3874 283.125 83.9107 282.537 84.473C281.152 85.8626 280.236 87.65 279.916 89.5855C279.596 91.5211 279.888 93.5084 280.751 95.27C281.119 95.9911 281.532 96.6879 281.988 97.3562Z" fill="white"/>
<path d="M284.997 99.6398C284.997 99.7204 284.492 99.6398 284.016 99.2738C283.54 98.9078 283.284 98.5418 283.357 98.4686C283.43 98.3954 283.767 98.6956 284.206 99.0103C284.646 99.3251 285.033 99.552 284.997 99.6398Z" fill="white"/>
<path d="M163.009 27.3257H54.168V140.786H163.009V27.3257Z" fill="#E0E0E0"/>
<path d="M155.637 27.3254H46.7964V140.785H155.637V27.3254Z" fill="#FAFAFA"/>
<path d="M155.674 140.815H46.7601V27.2893H155.674V140.815ZM46.848 140.749H155.601V27.3552H46.848V140.749Z" fill="#E0E0E0"/>
<path d="M141.005 42.573H61.4294V125.523H141.005V42.573Z" fill="#FAFAFA"/>
<path d="M61.4294 126.08C60.8635 126.913 60.2054 127.679 59.4676 128.364C58.1939 129.703 56.4079 131.519 54.4095 133.488C52.4111 135.457 50.5665 137.214 49.205 138.458C47.8435 139.703 47.009 140.449 46.9065 140.376C47.4682 139.544 48.124 138.781 48.8609 138.099C50.1346 136.76 51.9207 134.945 53.9337 132.975C55.9467 131.006 57.784 129.235 59.1382 127.983C60.4924 126.731 61.3635 126.007 61.4294 126.08Z" fill="#E0E0E0"/>
<path d="M141.005 125.904C141.839 126.471 142.605 127.132 143.289 127.873C144.628 129.139 146.444 130.926 148.413 132.931C150.382 134.937 152.139 136.767 153.39 138.128C154.117 138.815 154.759 139.587 155.301 140.427C154.471 139.866 153.71 139.21 153.032 138.472C151.685 137.206 149.87 135.413 147.908 133.407C145.946 131.401 144.167 129.549 142.923 128.195C141.678 126.841 140.932 125.941 141.005 125.904Z" fill="#E0E0E0"/>
<path d="M140.786 42.8001C141.346 41.9655 142.002 41.199 142.74 40.5163C144.006 39.1694 145.792 37.354 147.798 35.3923C149.804 33.4305 151.641 31.6664 152.995 30.4147C153.682 29.6878 154.454 29.0463 155.294 28.5042C155.367 28.57 154.613 29.4338 153.339 30.7734C152.066 32.1129 150.28 33.9356 148.274 35.8974C146.268 37.8591 144.424 39.6379 143.062 40.8823C141.701 42.1267 140.851 42.8733 140.786 42.8001Z" fill="#E0E0E0"/>
<path d="M61.2098 42.9975C60.3727 42.4374 59.6059 41.7788 58.9259 41.0357C57.5864 39.7621 55.771 37.9833 53.8019 35.9776C51.8329 33.9719 50.0687 32.1346 48.8243 30.7804C48.0987 30.0906 47.4552 29.3193 46.9065 28.4819C46.9797 28.4087 47.8435 29.1627 49.183 30.4291C50.5226 31.6954 52.3453 33.4961 54.307 35.5018C56.2688 37.5075 58.0402 39.3521 59.2919 40.7137C60.0187 41.397 60.6624 42.1635 61.2098 42.9975Z" fill="#E0E0E0"/>
<path d="M140.785 125.531C140.785 125.531 140.785 125.385 140.785 125.129C140.785 124.872 140.785 124.463 140.785 123.972C140.785 122.923 140.785 121.43 140.785 119.492C140.785 115.561 140.742 109.845 140.705 102.583C140.705 88.0529 140.61 67.3592 140.551 42.5591L140.851 42.8665L61.5026 42.9104L61.8539 42.5591C61.8539 73.0103 61.8173 101.492 61.8027 125.517L61.5026 125.209L118.965 125.37L135.105 125.443L139.373 125.48H140.478C140.605 125.471 140.732 125.471 140.859 125.48C140.744 125.487 140.629 125.487 140.515 125.48H139.439L135.23 125.517L119.126 125.597L61.4733 125.751H61.1732V125.451C61.1732 101.427 61.1366 72.9444 61.1219 42.4932V42.1418H61.4806L140.829 42.1858H141.144V42.4932C141.086 67.3812 141.027 88.1261 140.99 102.7C140.99 109.932 140.932 115.627 140.91 119.536C140.91 121.454 140.91 122.933 140.873 123.928C140.873 124.404 140.873 124.777 140.873 125.048C140.862 125.212 140.833 125.374 140.785 125.531Z" fill="#E0E0E0"/>
<path d="M100.877 58.1943C100.606 59.1093 95.9432 66.4586 89.2234 68.9547C82.5036 71.4509 77.5114 74.2178 79.3707 77.5045C81.23 80.7912 89.4943 79.0051 89.4943 79.0051C89.4943 79.0051 72.7388 97.2172 88.5134 107.626C107.743 120.312 127.844 74.8839 127.844 74.8839L100.877 58.1943Z" fill="#EBEBEB"/>
<path d="M124.674 81.1203C124.623 81.2081 118.284 77.4603 110.517 72.6803C102.751 67.9003 96.4922 64.0207 96.5434 63.8963C96.5946 63.7719 102.934 67.5563 110.708 72.3363C118.481 77.1162 124.725 81.0324 124.674 81.1203Z" fill="#E0E0E0"/>
<path d="M121.702 86.5661C121.644 86.6539 114.799 82.6352 106.403 77.5918C98.0074 72.5483 91.2437 68.3905 91.295 68.3027C91.3462 68.2148 98.1904 72.2335 106.594 77.277C114.997 82.3205 121.753 86.4782 121.702 86.5661Z" fill="#E0E0E0"/>
<path d="M118.108 91.7273C118.05 91.8151 110.364 87.2914 100.928 81.6257C91.4926 75.96 83.8871 71.2898 83.9384 71.2093C83.9896 71.1288 91.6829 75.6452 101.118 81.3109C110.554 86.9766 118.159 91.6468 118.108 91.7273Z" fill="#E0E0E0"/>
<path d="M113.621 98.0882C113.562 98.1761 107.604 94.538 100.306 89.9703C93.0078 85.4027 87.1299 81.6255 87.1884 81.545C87.247 81.4645 93.1981 85.0952 100.504 89.6629C107.809 94.2306 113.672 98.0297 113.621 98.0882Z" fill="#E0E0E0"/>
<path d="M108.336 104.288C108.285 104.369 102.736 100.789 95.9432 96.2873C89.1502 91.7855 83.6968 88.067 83.748 87.9864C83.7993 87.9059 89.3552 91.4854 96.1481 95.9872C102.941 100.489 108.402 104.2 108.336 104.288Z" fill="#E0E0E0"/>
<path d="M101.616 108.562C101.322 108.462 101.039 108.33 100.774 108.167C100.247 107.896 99.486 107.479 98.5783 106.959C96.7191 105.912 94.1863 104.404 91.4413 102.648C88.6963 100.891 86.2734 99.2146 84.5459 97.9629C83.6821 97.3334 82.9941 96.821 82.5256 96.455C82.2594 96.2836 82.0138 96.0822 81.7936 95.8547C82.0727 95.9888 82.3375 96.1506 82.5841 96.3379L84.6777 97.7506C86.4418 98.9511 88.8793 100.591 91.617 102.34C94.3547 104.09 96.8655 105.634 98.6881 106.732L100.884 108.05C101.145 108.195 101.39 108.367 101.616 108.562Z" fill="#E0E0E0"/>
<path d="M85.8415 79.4148C84.5091 79.0793 83.249 78.5038 82.123 77.7166C80.9356 77.0268 79.8819 76.1292 79.012 75.0667C79.0852 74.9862 80.432 76.216 82.3206 77.4091C84.2092 78.6023 85.8854 79.3197 85.8415 79.4148Z" fill="#E0E0E0"/>
<path d="M126.592 73.9326C126.525 74.0722 126.444 74.2046 126.35 74.3279L125.618 75.4113C124.967 76.3555 124.001 77.7024 122.793 79.3641C120.377 82.6727 116.937 87.1965 113.079 92.1009C109.222 97.0053 105.547 101.339 102.831 104.442C101.492 105.994 100.401 107.239 99.6325 108.102L98.7614 109.069C98.664 109.19 98.5535 109.301 98.432 109.398C98.5125 109.265 98.6057 109.14 98.7102 109.025L99.5446 108.007L102.663 104.281C105.291 101.141 108.892 96.771 112.779 91.8813C116.666 86.9915 120.099 82.4897 122.573 79.2177L125.501 75.3381L126.307 74.2913C126.393 74.1647 126.488 74.0449 126.592 73.9326Z" fill="#E0E0E0"/>
<path d="M121.139 70.0525C121.219 70.1184 114.551 78.8365 106.22 89.5238C97.8903 100.211 91.09 108.834 91.0168 108.768C90.9436 108.702 97.6048 99.984 105.935 89.2968C114.265 78.6096 121.058 69.994 121.139 70.0525Z" fill="#E0E0E0"/>
<path d="M113.533 65.741C113.482 65.8935 113.41 66.0387 113.321 66.1728L112.633 67.3807C112.033 68.4201 111.125 69.9134 109.954 71.7141C107.619 75.3741 104.149 80.1687 100.05 85.3073C95.9506 90.446 92.0929 94.9624 89.304 98.2344L85.9807 102.092L85.0584 103.132C84.9597 103.259 84.8467 103.374 84.7217 103.476C84.805 103.338 84.9005 103.208 85.0072 103.088L85.8709 102.004L89.1064 98.0734C91.8514 94.7574 95.6944 90.2191 99.7643 85.0804C103.834 79.9418 107.355 75.1472 109.734 71.575C110.935 69.7889 111.872 68.3249 112.516 67.3074L113.248 66.1362C113.333 65.9975 113.428 65.8654 113.533 65.741Z" fill="#E0E0E0"/>
<path d="M107.297 62.1681C107.377 62.2266 101.682 69.7662 94.5817 79.0041C87.4813 88.2419 81.6546 95.679 81.5741 95.6205C81.4936 95.5619 87.1885 88.0223 94.2889 78.7845C101.389 69.5466 107.216 62.1095 107.297 62.1681Z" fill="#E0E0E0"/>
<path d="M102.604 59.1089C102.427 59.4587 102.227 59.7962 102.004 60.119C101.799 60.4411 101.55 60.851 101.228 61.2536C100.906 61.6562 100.569 62.1906 100.13 62.7176C99.15 63.9578 98.0939 65.1362 96.968 66.2459C95.5892 67.5984 94.1219 68.8578 92.576 70.0157C91.008 71.1515 89.3672 72.1833 87.6643 73.1047C86.2687 73.8463 84.8288 74.5015 83.3528 75.0665C82.7306 75.33 82.145 75.5057 81.6399 75.6814C81.1349 75.857 80.6883 75.9815 80.3223 76.0766C79.9508 76.2016 79.5685 76.2923 79.1804 76.3475C79.5352 76.1845 79.9024 76.0499 80.2784 75.9449C80.6371 75.8278 81.0763 75.6814 81.5667 75.491C82.0572 75.3007 82.6428 75.1031 83.2577 74.8323C84.7082 74.2331 86.1255 73.5562 87.5033 72.8046C89.1867 71.878 90.8101 70.8463 92.3637 69.7156C93.9027 68.5701 95.3695 67.3306 96.7557 66.0043C97.8843 64.9145 98.9522 63.7636 99.9546 62.5566C100.401 62.0515 100.752 61.5611 101.089 61.1438C101.426 60.7266 101.689 60.3606 101.909 60.0532C102.115 59.7199 102.347 59.4041 102.604 59.1089Z" fill="#E0E0E0"/>
<path d="M82.0205 278.672C81.7058 278.745 84.0628 290.618 84.0628 290.618H90.1164L92.7882 279.14C89.318 277.956 85.5805 277.793 82.0205 278.672Z" fill="#E0E0E0"/>
<path d="M78.3751 345.503C78.3751 345.503 69.474 320.615 70.7184 313.815C71.9628 307.015 74.6419 305.624 76.7721 303.487C78.9022 301.349 80.6956 299.57 81.2299 297.433C81.7643 295.296 81.2299 286.746 81.2299 286.746C81.2299 286.746 79.6269 284.257 80.1612 283.364C80.6956 282.471 93.8716 283.364 93.8716 283.364C93.7974 284.452 93.4279 285.5 92.8029 286.394C92.8029 286.394 92.4442 296.364 92.9785 297.433C93.5129 298.502 101.704 307.586 102.948 312.212C104.193 316.838 98.0293 345.503 98.0293 345.503H78.3751Z" fill="#F5F5F5"/>
<path d="M78.3751 345.504C78.4922 345.498 78.6095 345.498 78.7265 345.504H79.7293H83.5943L98.0293 345.438L97.9122 345.534C98.6442 341.874 99.4933 337.804 100.328 333.28C101.162 328.756 102.026 323.83 102.634 318.545C102.773 317.22 102.904 315.873 102.934 314.511C102.966 313.835 102.924 313.158 102.809 312.491C102.632 311.826 102.387 311.181 102.077 310.566C100.715 308.031 99.1249 305.625 97.3266 303.378C96.4263 302.207 95.4966 301.043 94.5523 299.864C94.0765 299.279 93.6007 298.693 93.1396 298.078C93.0181 297.919 92.9057 297.752 92.8029 297.58C92.7268 297.382 92.6752 297.176 92.6491 296.965C92.5906 296.577 92.5686 296.197 92.5467 295.809C92.4149 292.727 92.5027 289.601 92.5979 286.439V286.388V286.337C92.7491 286.101 92.886 285.857 93.0078 285.605C93.3577 284.92 93.5715 284.175 93.6373 283.409L93.813 283.599C90.8045 283.409 87.8399 283.262 84.9339 283.211C83.5067 283.159 82.0777 283.216 80.659 283.379C80.5293 283.403 80.4037 283.445 80.2857 283.504C80.2174 283.624 80.1868 283.762 80.1978 283.899C80.2201 284.23 80.2916 284.556 80.4101 284.865C80.6609 285.504 80.9722 286.116 81.3397 286.695V286.739V286.783C81.4715 289.06 81.5593 291.3 81.5667 293.503C81.584 294.6 81.5424 295.697 81.4422 296.79C81.3075 297.881 80.8997 298.921 80.2564 299.813C79.6459 300.671 78.9679 301.479 78.2287 302.228C77.4967 302.96 76.7647 303.692 76.0327 304.388C75.2877 305.037 74.5859 305.734 73.9319 306.474C73.3515 307.196 72.8599 307.985 72.4679 308.824C71.6869 310.493 71.1471 312.265 70.8648 314.087C70.7734 314.956 70.7734 315.831 70.8648 316.7C70.9234 317.564 71.0405 318.406 71.1649 319.24C71.692 322.541 72.4533 325.557 73.1633 328.288C74.6273 333.734 76.0035 338.023 76.9551 340.966C77.4309 342.43 77.8042 343.557 78.0604 344.34C78.1848 344.714 78.28 344.999 78.3459 345.212C78.4117 345.424 78.4337 345.512 78.4337 345.512L78.3166 345.219C78.2434 345.014 78.1336 344.728 78.0018 344.362C77.7237 343.63 77.3284 342.474 76.8306 341.01C75.8424 338.082 74.4297 333.792 72.9364 328.346C72.0982 325.363 71.4141 322.338 70.8868 319.284C70.7623 318.45 70.6379 317.6 70.572 316.722C70.4771 315.832 70.4771 314.933 70.572 314.043C70.8472 312.188 71.3896 310.384 72.1824 308.685C72.6125 307.799 73.1509 306.97 73.7855 306.218C74.451 305.467 75.1624 304.758 75.9156 304.095C76.6476 303.422 77.3796 302.69 78.1116 301.95C78.8393 301.215 79.503 300.419 80.0953 299.571C80.7098 298.727 81.0979 297.739 81.2226 296.702C81.3173 295.624 81.3564 294.541 81.3397 293.459C81.3397 291.263 81.2299 289.067 81.0982 286.761V286.849C80.7164 286.248 80.3952 285.61 80.1393 284.946C79.9981 284.599 79.9164 284.23 79.8977 283.855C79.8828 283.636 79.9393 283.418 80.0587 283.233C80.2268 283.085 80.4365 282.993 80.659 282.97C82.1013 282.794 83.5553 282.735 85.0071 282.794C87.9351 282.838 90.8631 282.984 93.9082 283.175H94.0985V283.35C94.0434 284.186 93.814 285.002 93.4251 285.744C93.2944 285.995 93.1502 286.24 92.9932 286.476L93.0298 286.381C92.9346 289.536 92.8468 292.661 92.9785 295.714C92.9911 296.088 93.0229 296.462 93.0737 296.834C93.0939 297.006 93.1332 297.175 93.1908 297.339C93.2834 297.492 93.3861 297.639 93.4983 297.778C93.9448 298.385 94.4279 298.971 94.8964 299.557C95.8407 300.735 96.7703 301.899 97.6707 303.078C99.4847 305.345 101.085 307.776 102.451 310.339C102.761 310.979 103.006 311.648 103.183 312.337C103.3 313.034 103.341 313.74 103.307 314.446C103.307 315.829 103.146 317.183 103 318.508C102.377 323.815 101.477 328.756 100.643 333.265C99.8081 337.774 98.9517 341.888 98.1757 345.512V345.614H98.0733L83.5797 345.556H79.7367H78.7485L78.3751 345.504Z" fill="#E0E0E0"/>
<path d="M96.3238 342.926C98.582 334.595 100.079 326.076 100.796 317.475C100.87 316.494 100.87 315.359 100.13 314.708C99.2225 313.917 97.8317 314.342 96.6825 314.708C93.3041 315.776 89.7095 315.967 86.2368 315.264C82.8623 314.569 79.5171 313.024 76.1133 313.58C75.6877 313.623 75.2746 313.749 74.8978 313.951C74.521 314.153 74.1878 314.428 73.9173 314.759C73.3609 315.579 73.4927 316.662 73.6537 317.636C74.986 326.002 77.7163 335.628 79.9343 342.926H96.3238Z" fill="#E0E0E0"/>
<path d="M98.5637 315.733C98.3816 316.004 98.1651 316.25 97.9196 316.465C97.287 317.048 96.6089 317.579 95.8919 318.054C93.5246 319.678 90.8029 320.713 87.9543 321.07C85.1056 321.428 82.2126 321.099 79.5171 320.111C78.707 319.817 77.9214 319.459 77.1674 319.042C76.8809 318.903 76.6129 318.728 76.3695 318.522C76.4061 318.456 77.5553 319.174 79.6049 319.855C82.2678 320.754 85.0996 321.039 87.8884 320.689C90.6772 320.34 93.3508 319.364 95.7089 317.834C97.5755 316.663 98.5125 315.682 98.5637 315.733Z" fill="white"/>
<path d="M247.035 180.547C244.756 180.801 242.456 180.801 240.177 180.547C242.456 180.294 244.756 180.294 247.035 180.547Z" fill="#FAFAFA"/>
<path d="M348.432 346.441C348.432 346.551 274.376 346.639 183.044 346.639C91.7123 346.639 17.6119 346.551 17.6119 346.441C17.6119 346.331 91.6464 346.236 183 346.236C274.354 346.236 348.432 346.339 348.432 346.441Z" fill="#263238"/>
<path d="M282.245 305.12C285.809 302.558 289.44 299.96 293.569 298.459C297.697 296.959 302.47 296.666 306.379 298.679C309.651 300.362 312.008 303.51 313.362 306.936C315.033 311.19 315.315 315.863 314.167 320.287C313.545 322.674 312.308 325.141 310.039 326.107C307.769 327.073 305.156 326.239 302.902 325.228C295.503 321.904 289.093 316.716 284.302 310.171C284.784 309.786 285.368 309.552 285.983 309.497C286.597 309.442 287.214 309.57 287.757 309.864C288.828 310.468 289.803 311.231 290.648 312.126C293.51 314.719 296.963 316.573 300.706 317.528C303.473 318.26 307.198 317.93 308.128 315.229C308.736 313.465 307.769 311.569 306.832 309.966C305.764 308.114 304.541 306.131 302.536 305.391C301.028 304.842 299.366 305.106 297.785 305.391L280.524 308.356L281.593 308.041" fill="#455A64"/>
<path d="M239.152 72.3143C227.769 69.1374 210.904 73.5587 204.462 83.4627C198.021 93.3666 200.861 108.065 200.356 119.865C199.851 131.665 200.356 143.655 197.494 155.125C195.693 162.445 192.245 169.765 185.906 173.828C178.659 178.44 167.796 178.893 164.363 186.77C161.501 193.358 165.944 201.41 163.053 207.998C161.779 210.926 159.195 213.122 158.083 216.086C156.546 220.2 158.229 224.988 161.252 228.172C164.275 231.356 168.411 233.223 172.532 234.76C185.088 239.358 198.433 241.411 211.79 240.799C221.503 240.345 231.927 238.046 238.295 230.704C243.295 224.936 244.942 217.031 245.85 209.476C251.427 162.753 252.438 111.388 239.152 72.3875" fill="#263238"/>
<path d="M175.68 214.103C175.775 214.051 175.255 213.173 174.736 211.423C174.056 208.95 173.911 206.359 174.311 203.825C174.918 200.068 176.32 196.484 178.425 193.314C180.76 189.712 184.142 186.331 187.853 183C191.564 179.669 195.261 176.588 198.24 173.374C200.927 170.562 203.164 167.352 204.872 163.858C206.013 161.492 206.722 158.941 206.966 156.326C207.017 155.617 207.017 154.905 206.966 154.196C206.966 153.705 206.907 153.464 206.871 153.464C206.651 153.405 207.237 157.709 204.294 163.595C202.54 166.977 200.298 170.082 197.64 172.81C194.712 175.951 191.001 178.989 187.26 182.326C183.52 185.664 180.109 189.127 177.744 192.86C175.605 196.139 174.22 199.851 173.689 203.73C173.337 206.346 173.588 209.007 174.421 211.511C174.654 212.186 174.948 212.837 175.299 213.458C175.395 213.69 175.523 213.907 175.68 214.103Z" fill="#455A64"/>
<path d="M204.309 297.785L200.502 345.621L314.863 346.185L283.775 302.469L204.309 297.785Z" fill="#263238"/>
<path d="M113.899 182.729C114.221 183.007 107.201 220.464 103.651 239.218C103.058 242.355 103.357 245.596 104.514 248.572C105.671 251.548 107.639 254.14 110.195 256.054C112.836 258.029 115.993 259.196 119.284 259.414C122.575 259.632 125.858 258.892 128.737 257.283L176.353 232.505L161.772 201.974L131.76 219.007L133.736 187.246L113.899 182.729Z" fill="#FFBE9D"/>
<path d="M130.157 152.944C129.82 151.604 128.129 150.997 126.782 151.333C125.469 151.794 124.298 152.588 123.386 153.639L119.536 155.974C118.809 156.457 118.211 157.108 117.792 157.874C117.374 158.639 117.148 159.494 117.135 160.366C117.116 162.107 117.385 163.838 117.932 165.49C118.335 166.954 118.906 168.616 120.319 169.15C121.893 169.736 123.635 168.521 124.374 167.013C125.113 165.505 125.187 163.785 125.575 162.152C126.042 160.195 126.968 158.376 128.276 156.845C129.249 155.696 130.53 154.408 130.157 152.944Z" fill="#EB996E"/>
<path d="M98.1685 154.452C98.0494 154.079 98.0241 153.682 98.0948 153.296C98.1655 152.911 98.33 152.549 98.5739 152.242C98.8177 151.935 99.1333 151.693 99.4929 151.537C99.8524 151.381 100.245 151.316 100.635 151.348C108.453 151.992 127.024 154.591 138.041 157.761C153.661 162.255 163.946 165.161 163.946 165.161L197.12 164.429C197.12 164.429 193.138 175.863 180.497 175.921C170.929 175.965 160.894 169.817 160.894 169.817C160.894 169.817 118.379 155.338 100.526 156.121C100.004 156.144 99.4898 155.993 99.0633 155.693C98.6367 155.392 98.322 154.958 98.1685 154.459V154.452Z" fill="#455A64"/>
<path d="M190.92 164.524C191.33 165.688 189.976 166.72 188.768 166.94C187.56 167.159 186.177 167.101 185.306 167.965C184.997 168.336 184.772 168.769 184.645 169.235C184.519 169.701 184.495 170.189 184.574 170.666C184.747 171.614 184.861 172.573 184.918 173.535C184.937 174.189 184.709 174.827 184.281 175.321C183.41 176.207 181.807 175.907 180.965 174.999C180.194 174.012 179.774 172.796 179.772 171.544C179.761 170.657 179.63 169.776 179.384 168.923C179.254 168.497 179.012 168.114 178.684 167.813C178.356 167.511 177.953 167.304 177.517 167.211C176.471 167.079 175.548 167.869 174.545 168.221C174.02 168.37 173.468 168.403 172.929 168.318C172.389 168.233 171.874 168.033 171.419 167.73C170.964 167.428 170.58 167.03 170.293 166.565C170.007 166.1 169.824 165.579 169.758 165.037L190.92 164.524Z" fill="#F25260"/>
<path d="M110.122 152.629C109.602 152.919 109.064 153.176 108.512 153.398C105.834 154.485 102.935 154.917 100.057 154.657C99.4639 154.608 98.8745 154.52 98.293 154.394C98.293 154.394 98.4613 154.394 98.7614 154.459C99.0616 154.525 99.4935 154.555 100.057 154.598C101.488 154.714 102.927 154.665 104.347 154.452C105.764 154.238 107.154 153.868 108.49 153.347C109.002 153.142 109.412 152.966 109.69 152.827L110.122 152.629Z" fill="#263238"/>
<path d="M124.674 154.73H124.535L124.14 154.686C123.796 154.642 123.298 154.598 122.676 154.562C121.066 154.466 119.451 154.549 117.859 154.811C116.269 155.081 114.713 155.523 113.218 156.128C112.647 156.37 112.186 156.575 111.879 156.728L111.52 156.897L111.388 156.948C111.388 156.948 111.425 156.948 111.506 156.868L111.85 156.67C112.157 156.502 112.582 156.282 113.182 156.033C114.673 155.391 116.236 154.932 117.837 154.664C119.438 154.401 121.065 154.33 122.683 154.452C123.305 154.503 123.803 154.569 124.147 154.628L124.542 154.701L124.674 154.73Z" fill="#263238"/>
<path d="M135.552 160.242L134.022 159.788L132.236 159.247C131.849 159.16 131.497 158.958 131.226 158.668C131.158 158.581 131.112 158.479 131.093 158.371C131.074 158.262 131.082 158.151 131.116 158.046C131.156 157.937 131.221 157.839 131.306 157.76C131.392 157.681 131.494 157.624 131.606 157.592C132.084 157.447 132.593 157.447 133.07 157.592C133.561 157.687 134.073 157.797 134.593 157.944C135.7 158.255 136.776 158.669 137.806 159.181C138.348 159.452 138.897 159.752 139.431 160.088C139.715 160.24 139.965 160.45 140.163 160.703C140.214 160.775 140.246 160.858 140.257 160.945C140.267 161.032 140.255 161.12 140.222 161.201C140.144 161.355 140.015 161.477 139.856 161.545C138.573 162.04 137.183 162.193 135.823 161.992C133.004 161.633 130.625 160.279 128.503 159.166C126.654 158.071 124.646 157.268 122.552 156.787C121.133 156.488 119.662 156.544 118.269 156.948C117.893 157.067 117.528 157.219 117.179 157.402C116.944 157.534 116.82 157.592 116.82 157.592L117.12 157.38C117.466 157.19 117.828 157.034 118.203 156.911C119.603 156.493 121.085 156.43 122.515 156.728C124.616 157.204 126.631 158.001 128.488 159.093C130.618 160.205 132.997 161.552 135.808 161.911C137.153 162.109 138.527 161.958 139.797 161.472C139.944 161.415 140.064 161.305 140.134 161.164C140.16 161.093 140.169 161.017 140.16 160.942C140.151 160.867 140.125 160.796 140.083 160.733C139.882 160.489 139.633 160.29 139.351 160.147C138.829 159.815 138.289 159.512 137.733 159.239C136.705 158.728 135.632 158.314 134.527 158.002C134.015 157.856 133.502 157.739 133.012 157.636C132.555 157.504 132.07 157.504 131.614 157.636C131.51 157.668 131.415 157.723 131.335 157.797C131.256 157.87 131.193 157.96 131.153 158.061C131.12 158.158 131.111 158.261 131.128 158.362C131.144 158.463 131.186 158.558 131.248 158.639C131.513 158.924 131.857 159.123 132.236 159.21L134.022 159.759L135.552 160.242Z" fill="#263238"/>
<path d="M143.267 159.576C143.399 159.802 143.488 160.05 143.531 160.308C143.65 160.906 143.576 161.526 143.318 162.079C143.047 162.626 142.612 163.073 142.074 163.36C141.847 163.483 141.598 163.563 141.342 163.595C141.574 163.518 141.799 163.423 142.015 163.309C142.545 163.028 142.972 162.586 143.234 162.046C143.496 161.507 143.579 160.898 143.472 160.308C143.423 160.059 143.355 159.814 143.267 159.576Z" fill="#263238"/>
<path d="M156.736 163.097C156.736 163.097 156.004 163.097 154.862 163.024C153.72 162.95 152.11 162.782 150.338 162.76C148.84 162.706 147.346 162.955 145.946 163.492C145.693 163.584 145.448 163.696 145.214 163.829C145.038 163.913 144.871 164.016 144.716 164.136L144.299 164.414L144.694 164.114C144.847 163.988 145.014 163.88 145.192 163.792C145.426 163.655 145.671 163.537 145.924 163.441C147.341 162.89 148.857 162.641 150.375 162.709C152.154 162.709 153.742 162.921 154.899 163.002C155.477 163.045 155.945 163.082 156.267 163.097H156.736Z" fill="#263238"/>
<path d="M170.783 174.142C170.783 174.142 170.519 173.916 170.051 173.491C169.817 173.279 169.524 173.022 169.173 172.759C168.821 172.495 168.441 172.144 167.972 171.815C166.914 171.014 165.806 170.28 164.656 169.619C161.84 168.011 158.793 166.846 155.623 166.164C154.332 165.878 153.024 165.678 151.707 165.563C151.143 165.49 150.631 165.483 150.184 165.461C149.738 165.439 149.35 165.461 149.035 165.461H148.054H149.035C149.35 165.461 149.767 165.461 150.184 165.461C150.602 165.461 151.143 165.461 151.707 165.549C153.028 165.661 154.341 165.856 155.638 166.134C157.223 166.477 158.784 166.927 160.308 167.481C161.818 168.074 163.286 168.771 164.7 169.567C165.851 170.228 166.959 170.961 168.016 171.763C168.477 172.086 168.858 172.43 169.209 172.715C169.56 173.001 169.846 173.249 170.073 173.447C170.556 173.901 170.783 174.142 170.783 174.142Z" fill="#263238"/>
<path d="M180.379 174.392C180.147 174.518 179.902 174.619 179.647 174.692C178.967 174.899 178.256 174.986 177.547 174.949C176.493 174.882 175.461 174.614 174.509 174.158C173.353 173.585 172.287 172.845 171.347 171.962C170.329 171.04 169.443 170.088 168.624 169.239C167.906 168.465 167.146 167.732 166.347 167.043C165.809 166.585 165.236 166.169 164.634 165.799C164.422 165.674 164.253 165.572 164.136 165.513L163.968 165.433C164.842 165.854 165.656 166.388 166.391 167.021C167.191 167.701 167.956 168.422 168.682 169.18C169.509 170.03 170.395 170.981 171.405 171.896C172.34 172.776 173.398 173.516 174.545 174.092C175.49 174.548 176.514 174.817 177.561 174.883C178.265 174.93 178.971 174.853 179.647 174.656C179.833 174.604 180.014 174.538 180.189 174.458L180.379 174.392Z" fill="#263238"/>
<path d="M192.948 170.871H192.699C192.531 170.871 192.296 170.871 192.004 170.871C191.239 170.872 190.476 170.951 189.727 171.105C188.971 171.268 188.234 171.514 187.531 171.837C187.268 171.954 187.048 172.064 186.909 172.144C186.835 172.189 186.756 172.226 186.675 172.254C186.941 172.077 187.22 171.92 187.509 171.786C188.9 171.114 190.431 170.785 191.974 170.827C192.3 170.82 192.625 170.834 192.948 170.871Z" fill="#263238"/>
<path d="M101.602 173.799L101.25 166.954C101.211 166.217 101.414 165.487 101.829 164.876L101.873 164.81C103.052 163.06 104.589 161.581 106.382 160.469L121.131 151.326C121.349 151.191 121.596 151.111 121.851 151.092C122.107 151.074 122.363 151.119 122.597 151.222C122.832 151.325 123.037 151.484 123.196 151.684C123.356 151.885 123.463 152.121 123.51 152.373C123.693 153.581 123.159 156.333 122.09 157.431C120.194 159.157 118.118 160.673 115.898 161.955L130.691 159.085C131.036 160.03 131.03 161.067 130.674 162.008C130.318 162.948 129.635 163.73 128.752 164.209L134.834 162.921C134.834 162.921 136.825 165.754 134.102 167.621C131.379 169.487 126.541 171.105 126.541 171.105C126.541 171.105 134.088 174.289 133.912 176.829C133.736 179.369 133.634 187.509 133.634 187.509L113.358 186.045L101.602 173.799Z" fill="#FFBE9D"/>
<path d="M116.432 161.509L116.293 161.589L115.868 161.802C115.502 161.992 114.968 162.255 114.324 162.599C113.68 162.944 112.948 163.412 112.128 163.946C111.308 164.481 110.393 165.03 109.522 165.703C109.096 166.03 108.754 166.454 108.526 166.94C108.331 167.403 108.241 167.903 108.263 168.404C108.322 169.255 108.484 170.096 108.746 170.908C108.914 171.467 109.029 172.04 109.09 172.621C109.115 172.832 109.115 173.046 109.09 173.257C109.09 173.257 109.09 173.03 109.039 172.621C108.961 172.049 108.834 171.486 108.658 170.937C108.376 170.119 108.201 169.267 108.138 168.404C108.112 167.886 108.202 167.368 108.402 166.889C108.641 166.383 108.994 165.939 109.434 165.593C109.868 165.259 110.32 164.948 110.788 164.664L112.069 163.837C112.882 163.31 113.628 162.848 114.265 162.512C114.902 162.175 115.458 161.926 115.839 161.78L116.271 161.589L116.432 161.509Z" fill="#EB996E"/>
<path d="M117.808 176.873C117.808 176.873 117.742 176.8 117.625 176.646L117.12 175.995L116.315 174.97C115.948 174.52 115.636 174.029 115.385 173.506C115.108 172.788 115.049 172.005 115.214 171.254C115.379 170.503 115.762 169.817 116.315 169.282C116.991 168.693 117.76 168.22 118.591 167.884C119.426 167.489 120.304 167.108 121.212 166.735C124.324 165.491 127.521 164.471 130.779 163.682C132.024 163.368 133.041 163.148 133.744 163.002L134.549 162.841L134.834 162.789C134.743 162.822 134.65 162.848 134.556 162.87L133.751 163.06C133.056 163.229 132.046 163.463 130.823 163.792C127.587 164.614 124.408 165.645 121.307 166.881C120.407 167.255 119.528 167.613 118.694 168.023C117.875 168.354 117.116 168.816 116.447 169.392C115.911 169.907 115.538 170.568 115.374 171.292C115.21 172.017 115.262 172.774 115.524 173.469C115.765 173.99 116.065 174.481 116.417 174.933C116.71 175.321 116.974 175.665 117.208 175.973C117.442 176.28 117.581 176.485 117.691 176.646C117.801 176.807 117.808 176.873 117.808 176.873Z" fill="#EB996E"/>
<path d="M133.502 167.782C133.396 167.86 133.284 167.929 133.165 167.987L132.221 168.484C131.423 168.902 130.311 169.458 129.044 170.007C127.965 170.475 126.86 170.883 125.736 171.229C125.304 171.361 124.952 171.456 124.704 171.515C124.579 171.555 124.452 171.584 124.323 171.603C124.438 171.54 124.561 171.493 124.689 171.464L125.699 171.127C126.555 170.834 127.719 170.395 128.986 169.868C130.252 169.341 131.365 168.777 132.177 168.404L133.136 167.95C133.252 167.882 133.375 167.825 133.502 167.782Z" fill="#EB996E"/>
<path d="M177.02 135.135C177.02 135.135 176.771 135.471 176.441 136.152C175.988 137.121 175.758 138.179 175.768 139.249C175.777 140.836 176.338 142.371 177.356 143.589C177.988 144.28 178.655 144.937 179.355 145.558C180.122 146.234 180.73 147.071 181.133 148.011C181.469 148.989 181.437 150.055 181.046 151.012C180.683 151.889 180.19 152.706 179.582 153.435C179.025 154.167 178.432 154.76 177.898 155.345C177.4 155.89 176.945 156.473 176.536 157.087C176.078 157.658 175.751 158.322 175.577 159.033C175.404 159.744 175.389 160.484 175.534 161.201C175.534 161.201 175.534 161.099 175.46 160.908C175.392 160.621 175.362 160.325 175.373 160.03C175.444 158.949 175.816 157.909 176.449 157.029C176.854 156.407 177.307 155.817 177.803 155.265C178.337 154.665 178.923 154.05 179.472 153.347C180.064 152.627 180.545 151.823 180.899 150.961C181.281 150.027 181.31 148.986 180.98 148.033C180.588 147.113 179.992 146.294 179.238 145.639C178.54 145.011 177.875 144.346 177.246 143.648C176.209 142.407 175.646 140.837 175.658 139.219C175.658 138.135 175.909 137.065 176.39 136.094C176.563 135.751 176.774 135.43 177.02 135.135Z" fill="#263238"/>
<path d="M183.732 134.784C183.732 134.784 183.483 135.128 183.154 135.808C182.703 136.775 182.476 137.831 182.488 138.898C182.489 140.489 183.051 142.029 184.076 143.246C184.647 143.919 185.364 144.534 186.067 145.215C186.839 145.883 187.448 146.719 187.846 147.66C188.179 148.64 188.151 149.707 187.765 150.668C187.4 151.544 186.906 152.36 186.301 153.091C185.738 153.823 185.145 154.409 184.618 155.002C184.12 155.545 183.662 156.125 183.249 156.736C182.628 157.597 182.249 158.608 182.151 159.664C182.141 160.055 182.176 160.445 182.253 160.828C182.22 160.733 182.193 160.635 182.173 160.535C182.107 160.25 182.08 159.957 182.092 159.664C182.163 158.582 182.533 157.54 183.161 156.656C183.571 156.038 184.026 155.45 184.523 154.899C185.05 154.299 185.635 153.684 186.192 152.981C186.781 152.261 187.26 151.457 187.612 150.595C187.994 149.662 188.025 148.621 187.7 147.667C187.304 146.752 186.709 145.936 185.957 145.281C185.225 144.6 184.545 143.985 183.959 143.29C182.921 142.046 182.358 140.474 182.371 138.854C182.375 137.772 182.625 136.706 183.103 135.735C183.28 135.398 183.491 135.079 183.732 134.784Z" fill="#263238"/>
<path d="M131.145 242.643C131.101 242.643 131.314 237.102 131.621 230.272C131.928 223.443 132.207 217.909 132.243 217.916C132.28 217.924 132.075 223.45 131.775 230.28C131.475 237.109 131.182 242.643 131.145 242.643Z" fill="#EB996E"/>
<path d="M118.416 190.415C117.018 189.072 115.694 187.655 114.448 186.17C115.846 187.513 117.17 188.93 118.416 190.415Z" fill="#EB996E"/>
<path d="M203.869 296.219L197.911 346.185H281.088L267.231 310.646L286.3 306.122C286.3 306.122 285.019 302.543 283.789 302.462C282.559 302.382 203.869 296.219 203.869 296.219Z" fill="#455A64"/>
<path d="M161.164 200.7C161.164 200.7 193.424 179.808 201.908 176.961C207.127 175.212 222.799 174.933 222.799 174.933L193.424 225.134L176.727 233.259L161.164 200.7Z" fill="#F25260"/>
<path d="M322.871 235.806C313.018 212.016 297.075 185.137 292.354 180.533C287.632 175.928 258.682 172.21 258.682 172.21L220.72 176.331L190.283 218.055L203.613 283.122L203.159 283.986C202.163 285.905 201.705 288.059 201.834 290.218C201.963 292.376 202.674 294.46 203.891 296.247L283.796 302.498L283.899 240.886L322.871 235.806Z" fill="#F25260"/>
<path d="M272.868 270.679C272.754 270.866 272.624 271.042 272.48 271.206C272.202 271.536 271.828 272.048 271.272 272.67C269.75 274.409 268.099 276.029 266.331 277.516C260.48 282.466 253.54 285.958 246.079 287.709C238.618 289.46 230.848 289.419 223.406 287.589C221.16 287.041 218.958 286.327 216.818 285.451C216.086 285.151 215.486 284.858 215.091 284.719C214.888 284.635 214.692 284.535 214.505 284.419C214.718 284.481 214.926 284.556 215.128 284.646C215.53 284.8 216.101 285.071 216.87 285.341C225.052 288.518 233.935 289.451 242.599 288.043C251.262 286.635 259.393 282.938 266.148 277.333C267.924 275.872 269.597 274.289 271.155 272.597C271.726 272.012 272.114 271.514 272.414 271.199C272.552 271.015 272.704 270.841 272.868 270.679Z" fill="#263238"/>
<path d="M283.877 238.566C283.81 238.374 283.761 238.175 283.731 237.973L283.379 236.275C283.079 234.753 282.647 232.615 282.149 230.002C281.147 224.666 279.77 217.353 278.255 209.279C278.065 208.269 277.882 207.266 277.699 206.278C277.516 205.29 277.289 204.323 277.187 203.35C276.934 201.487 276.866 199.604 276.982 197.728C277.102 196.034 277.359 194.352 277.75 192.699C278.119 191.266 278.591 189.862 279.163 188.497C279.993 186.524 281.068 184.662 282.362 182.956C282.801 182.334 283.211 181.909 283.46 181.602C283.578 181.437 283.719 181.29 283.877 181.163C283.877 181.163 283.76 181.331 283.518 181.653C283.277 181.975 282.896 182.385 282.486 183.044C281.244 184.767 280.212 186.632 279.412 188.6C278.859 189.956 278.407 191.35 278.058 192.772C277.679 194.409 277.434 196.074 277.326 197.75C277.221 199.602 277.297 201.461 277.553 203.299C277.655 204.265 277.897 205.216 278.065 206.227C278.233 207.237 278.431 208.21 278.621 209.228C280.085 217.28 281.432 224.6 282.406 229.973C282.874 232.6 283.247 234.745 283.511 236.268L283.796 237.981C283.839 238.173 283.866 238.369 283.877 238.566Z" fill="#263238"/>
<path d="M194.207 237.168C194.085 236.821 193.995 236.463 193.936 236.099C193.79 235.331 193.592 234.335 193.35 233.171C192.875 230.683 192.238 227.228 191.557 223.414C190.876 219.6 190.283 216.138 189.873 213.634C189.683 212.427 189.522 211.438 189.405 210.662C189.335 210.3 189.293 209.933 189.281 209.564C189.404 209.912 189.494 210.269 189.551 210.633C189.698 211.365 189.895 212.39 190.137 213.561C190.613 216.057 191.25 219.512 191.93 223.326C192.611 227.14 193.204 230.595 193.614 233.106C193.804 234.306 193.965 235.302 194.082 236.077C194.153 236.437 194.194 236.802 194.207 237.168Z" fill="#263238"/>
<path d="M286.622 202.977C286.834 201.559 287.169 200.163 287.625 198.804C287.963 197.412 288.423 196.053 289.001 194.742C288.784 196.159 288.446 197.555 287.991 198.914C287.659 200.307 287.201 201.667 286.622 202.977Z" fill="#FAFAFA"/>
<path d="M290.904 217.66C289.779 217.154 288.71 216.534 287.713 215.808C286.647 215.176 285.647 214.441 284.726 213.612C286.917 214.743 288.987 216.095 290.904 217.645V217.66Z" fill="#FAFAFA"/>
<path d="M298.985 211.987C298.814 210.722 298.844 209.437 299.073 208.181C299.177 206.908 299.476 205.659 299.959 204.477C300.069 204.477 299.717 206.16 299.454 208.232C299.19 210.304 299.095 211.987 298.985 211.987Z" fill="#FAFAFA"/>
<path d="M300.603 226.188C300.103 225.079 299.672 223.94 299.315 222.777C298.83 221.658 298.412 220.512 298.063 219.344C298.761 220.357 299.301 221.47 299.666 222.645C300.15 223.774 300.466 224.968 300.603 226.188Z" fill="#FAFAFA"/>
<path d="M294.337 234.972C292.339 233.481 290.495 231.794 288.833 229.936C290.835 231.422 292.68 233.109 294.337 234.972Z" fill="#FAFAFA"/>
<path d="M313.523 224.724C313.603 224.804 312.454 226.078 311.327 227.85C310.2 229.621 309.453 231.18 309.35 231.136C309.677 229.876 310.238 228.689 311.005 227.637C311.658 226.52 312.512 225.532 313.523 224.724Z" fill="#FAFAFA"/>
<path d="M292.602 188.702C291.811 188.246 291.089 187.679 290.458 187.019C289.738 186.453 289.1 185.79 288.562 185.05C289.352 185.514 290.076 186.083 290.714 186.74C291.431 187.304 292.067 187.964 292.602 188.702Z" fill="#FAFAFA"/>
<path d="M269.003 189.273C267.242 190.602 265.337 191.726 263.322 192.625C264.16 191.909 265.079 191.292 266.06 190.788C266.98 190.172 267.967 189.664 269.003 189.273Z" fill="#FAFAFA"/>
<path d="M264.874 209.938C264.1 209.173 263.417 208.32 262.839 207.398C262.159 206.549 261.581 205.623 261.119 204.638C262.575 206.251 263.836 208.03 264.874 209.938Z" fill="#FAFAFA"/>
<path d="M273.812 216.672C272.972 218.92 271.615 220.938 269.852 222.565C269.771 222.485 270.781 221.262 271.865 219.637C272.948 218.012 273.709 216.614 273.812 216.672Z" fill="#FAFAFA"/>
<path d="M252.093 218.179C251.984 218.216 251.361 216.576 250.359 214.695C249.356 212.814 248.324 211.394 248.411 211.321C250.201 213.254 251.461 215.616 252.071 218.179H252.093Z" fill="#FAFAFA"/>
<path d="M256.625 232.234C257.03 231.038 257.555 229.885 258.191 228.794C258.708 227.641 259.344 226.544 260.087 225.522C259.681 226.72 259.159 227.874 258.528 228.97C258.005 230.12 257.368 231.213 256.625 232.234Z" fill="#FAFAFA"/>
<path d="M271.784 242.775C271.358 241.476 271.05 240.14 270.862 238.786C270.557 237.456 270.376 236.101 270.32 234.738C270.748 236.034 271.057 237.367 271.243 238.72C271.548 240.052 271.729 241.41 271.784 242.775Z" fill="#FAFAFA"/>
<path d="M244.254 235.052C243.317 234.298 242.433 233.479 241.611 232.6C240.699 231.812 239.839 230.966 239.035 230.067C240.086 230.677 241.043 231.437 241.875 232.322C242.792 233.116 243.593 234.035 244.254 235.052Z" fill="#FAFAFA"/>
<path d="M232.044 214.703C230.397 216.522 228.564 218.163 226.576 219.6C228.223 217.782 230.056 216.141 232.044 214.703Z" fill="#FAFAFA"/>
<path d="M227.242 208.773C226.43 207.874 225.713 206.893 225.105 205.845C224.394 204.856 223.785 203.796 223.289 202.683C224.817 204.579 226.142 206.63 227.242 208.803V208.773Z" fill="#FAFAFA"/>
<path d="M208.62 218.992C207.636 217.893 206.748 216.713 205.963 215.464C205.078 214.29 204.296 213.041 203.628 211.731C204.611 212.826 205.498 214.004 206.278 215.252C207.168 216.427 207.952 217.679 208.62 218.992Z" fill="#FAFAFA"/>
<path d="M214.132 231.21C214.132 231.319 211.731 231.356 208.781 231.51C205.831 231.663 203.445 231.854 203.43 231.744C203.931 231.584 204.45 231.486 204.975 231.451C205.941 231.327 207.28 231.202 208.759 231.129C210.238 231.056 211.585 231.049 212.558 231.07C213.087 231.049 213.616 231.096 214.132 231.21Z" fill="#FAFAFA"/>
<path d="M215.486 195.773C215.589 195.773 215.171 197.611 214.791 199.865C214.41 202.12 214.205 203.972 214.095 203.964C214.058 201.172 214.529 198.396 215.486 195.773Z" fill="#FAFAFA"/>
<path d="M208.071 185.035C208.896 183.725 209.826 182.484 210.853 181.324C211.78 180.083 212.809 178.92 213.927 177.847C213.102 179.157 212.172 180.399 211.145 181.558C210.218 182.799 209.189 183.962 208.071 185.035Z" fill="#FAFAFA"/>
<path d="M200.634 195.049C200.553 195.122 198.826 193.365 196.542 191.389C194.258 189.412 192.311 187.875 192.377 187.787C192.87 188.012 193.33 188.303 193.746 188.651C194.558 189.236 195.649 190.115 196.798 191.103C197.948 192.091 198.921 193.094 199.609 193.826C200.003 194.186 200.348 194.598 200.634 195.049Z" fill="#FAFAFA"/>
<path d="M188.256 198.533C188.307 198.636 186.133 199.8 183.725 201.63C181.316 203.46 179.604 205.231 179.516 205.15C179.805 204.689 180.157 204.27 180.563 203.906C181.474 202.974 182.452 202.11 183.491 201.322C184.532 200.534 185.63 199.824 186.777 199.199C187.236 198.908 187.734 198.684 188.256 198.533Z" fill="#FAFAFA"/>
<path d="M171.647 208.81C171.544 208.81 171.559 206.827 171.464 204.382C171.369 201.937 171.208 199.99 171.317 199.99C171.666 201.428 171.843 202.902 171.844 204.382C171.962 205.86 171.896 207.348 171.647 208.81Z" fill="#FAFAFA"/>
<path d="M183.893 219.644C181.536 217.959 179.332 216.071 177.305 214C178.516 214.792 179.655 215.688 180.709 216.679C181.86 217.567 182.926 218.559 183.893 219.644Z" fill="#FAFAFA"/>
<path d="M203.254 204.125C201.884 204.617 200.473 204.99 199.038 205.238C197.629 205.613 196.188 205.858 194.734 205.97C196.107 205.478 197.52 205.106 198.958 204.857C200.365 204.487 201.803 204.242 203.254 204.125Z" fill="#FAFAFA"/>
<path d="M241.223 209.147C240.568 208.731 239.985 208.212 239.496 207.609C238.911 207.092 238.416 206.481 238.032 205.801C238.686 206.221 239.269 206.743 239.759 207.346C240.342 207.862 240.836 208.471 241.223 209.147Z" fill="#FAFAFA"/>
<path d="M258.257 199.258C257.62 200.089 256.882 200.839 256.061 201.49C255.32 202.236 254.491 202.89 253.594 203.437C254.977 201.859 256.548 200.455 258.272 199.258H258.257Z" fill="#FAFAFA"/>
<path d="M272.824 203.291C272.721 203.291 273.146 201.607 273.556 199.536C273.966 197.464 274.098 195.759 274.207 195.766C274.314 197.051 274.22 198.345 273.929 199.602C273.752 200.881 273.379 202.125 272.824 203.291Z" fill="#FAFAFA"/>
<path d="M197.984 226.839C197.521 226.327 197.156 225.734 196.908 225.09C196.551 224.5 196.303 223.85 196.176 223.172C196.648 223.681 197.02 224.275 197.274 224.921C197.623 225.513 197.863 226.163 197.984 226.839Z" fill="#FAFAFA"/>
<path d="M224.212 227.864C223.744 227.11 223.381 226.294 223.136 225.441C222.77 224.629 222.523 223.769 222.404 222.886C222.873 223.639 223.233 224.455 223.472 225.309C223.842 226.12 224.092 226.981 224.212 227.864Z" fill="#FAFAFA"/>
<path d="M238.515 220.662C238.434 220.588 238.859 219.973 239.467 219.285C240.074 218.597 240.623 218.092 240.704 218.158C240.784 218.224 240.352 218.846 239.752 219.534C239.152 220.222 238.632 220.727 238.515 220.662Z" fill="#FAFAFA"/>
<path d="M209.125 266.506C208.388 265.492 207.834 264.358 207.485 263.154C207.023 261.988 206.775 260.748 206.753 259.494C206.863 259.494 207.2 261.104 207.866 263.029C208.532 264.955 209.228 266.448 209.125 266.506Z" fill="#FAFAFA"/>
<path d="M220.288 267.341C220.471 266.256 220.775 265.195 221.196 264.178C221.494 263.122 221.917 262.105 222.455 261.148C222.273 262.23 221.971 263.288 221.554 264.303C221.251 265.361 220.826 266.38 220.288 267.341Z" fill="#FAFAFA"/>
<path d="M217.031 280.027C216.327 279.101 215.728 278.099 215.245 277.041C214.643 276.038 214.152 274.973 213.781 273.864C214.48 274.794 215.077 275.798 215.559 276.858C216.159 277.86 216.652 278.922 217.031 280.027Z" fill="#FAFAFA"/>
<path d="M237.71 276.381C236.445 276.188 235.213 275.818 234.05 275.283C232.846 274.867 231.709 274.278 230.675 273.534C231.874 273.933 233.05 274.4 234.196 274.932C235.396 275.343 236.569 275.827 237.71 276.381Z" fill="#FAFAFA"/>
<path d="M231.019 268.856C230.968 268.761 232.264 267.919 233.728 266.718C235.192 265.518 236.29 264.427 236.37 264.522C234.98 266.398 233.14 267.893 231.019 268.87V268.856Z" fill="#FAFAFA"/>
<path d="M248.251 274.208C248.185 274.295 246.852 273.476 245.103 272.626C243.353 271.777 241.86 271.301 241.889 271.199C244.241 271.613 246.438 272.652 248.251 274.208Z" fill="#FAFAFA"/>
<path d="M251.925 281.088C251.852 281.007 252.855 279.982 253.96 278.599C255.065 277.215 255.841 276.015 255.937 276.073C255.552 277.092 254.981 278.03 254.253 278.84C253.625 279.729 252.835 280.491 251.925 281.088Z" fill="#FAFAFA"/>
<path d="M214.337 294.381C213.12 293.799 211.96 293.103 210.875 292.302C209.714 291.61 208.624 290.809 207.617 289.908C208.835 290.49 209.994 291.186 211.08 291.987C212.24 292.679 213.33 293.48 214.337 294.381Z" fill="#FAFAFA"/>
<path d="M228.34 290.926C228.384 291.029 226.876 291.695 225.17 292.808C223.465 293.92 222.243 295.004 222.162 294.945C223.787 293.034 225.934 291.637 228.34 290.926Z" fill="#FAFAFA"/>
<path d="M240.865 296.46C240.246 295.843 239.717 295.144 239.291 294.381C238.762 293.686 238.341 292.917 238.039 292.097C239.192 293.414 240.144 294.894 240.865 296.489V296.46Z" fill="#FAFAFA"/>
<path d="M255.959 291.476C256.002 291.578 254.582 292.251 252.972 293.298C251.362 294.345 250.154 295.348 250.044 295.267C250.793 294.344 251.706 293.567 252.738 292.976C253.706 292.276 254.799 291.767 255.959 291.476Z" fill="#FAFAFA"/>
<path d="M262.934 284.923C262.832 284.974 262.4 284.191 261.58 283.554C260.76 282.917 259.948 282.595 259.977 282.493C260.665 282.483 261.328 282.747 261.822 283.225C262.403 283.621 262.803 284.232 262.934 284.923Z" fill="#FAFAFA"/>
<path d="M270.84 292.462C270.073 293.07 269.232 293.576 268.337 293.97C267.495 294.47 266.595 294.863 265.657 295.142C266.422 294.53 267.263 294.023 268.161 293.634C268.999 293.128 269.9 292.734 270.84 292.462Z" fill="#FAFAFA"/>
<path d="M277.962 296.46C277.853 296.46 278.255 294.784 278.519 292.72C278.782 290.655 278.811 288.95 278.929 288.95C279.13 290.214 279.117 291.503 278.892 292.763C278.794 294.039 278.48 295.289 277.962 296.46Z" fill="#FAFAFA"/>
<path d="M276.835 283.752C276.769 283.847 275.291 282.844 273.263 282.046C271.235 281.248 269.478 280.963 269.493 280.846C270.841 280.854 272.172 281.143 273.402 281.695C274.68 282.128 275.85 282.829 276.835 283.752Z" fill="#FAFAFA"/>
<path d="M260.965 245.433C258.771 244.309 256.698 242.962 254.78 241.414C256.971 242.542 259.044 243.889 260.965 245.433Z" fill="#FAFAFA"/>
<g opacity="0.3">
<path d="M223.838 287.75C223.604 287.294 223.533 286.771 223.635 286.268C223.738 285.765 224.008 285.312 224.402 284.983C225.214 284.349 226.193 283.965 227.22 283.878C232.461 283.058 238.076 284.478 242.987 282.48C246.281 281.133 248.843 278.388 250.776 275.416C252.708 272.444 254.238 269.194 256.149 266.193C257.862 263.492 260.05 260.915 263.037 259.759C266.023 258.602 269.91 259.341 271.528 262.101C273.146 264.861 272.062 268.25 270.547 270.973C266.265 278.659 258.55 284.098 250.139 286.689C241.728 289.28 232.673 289.214 223.992 287.677" fill="black"/>
</g>
<path d="M327.636 265.109L319.467 235.96L285.839 240.309L289.777 255.768L239.481 242.351L228.384 257.079L304.732 293.13C308.231 294.621 312.103 295.01 315.829 294.244C319.556 293.477 322.96 291.592 325.586 288.84C330.271 283.892 329.707 271.616 327.636 265.109Z" fill="#FFBE9D"/>
<path d="M188.636 237.167C187.509 236.867 186.148 236.625 185.313 237.431C184.984 237.819 184.789 238.304 184.76 238.813C184.731 239.321 184.869 239.825 185.152 240.249C185.672 241.12 186.067 241.244 187.443 241.713L200.832 244.751L205.956 240.739L188.636 237.167Z" fill="#EB996E"/>
<path d="M230.426 257.781C214.066 253.777 198.884 248.485 182.722 245.41C181.917 245.257 181.009 245.044 180.584 244.334C180.006 243.368 180.753 242.058 181.785 241.619C182.863 241.285 184.011 241.247 185.108 241.509C193.756 242.712 202.547 242.414 211.094 240.63C216.635 239.467 222.074 237.702 227.667 236.97C233.259 236.238 234.767 239.166 239.481 242.314" fill="#FFBE9D"/>
<path d="M239.481 242.35C238.12 239.963 236.141 237.986 233.751 236.629C231.362 235.271 228.65 234.582 225.903 234.635C222.557 234.745 219.359 235.96 216.13 236.831C212.902 237.702 209.374 238.244 206.256 237.014C205.063 236.546 203.95 235.821 202.676 235.645C201.403 235.47 199.88 236.092 199.653 237.351C199.477 238.302 200.092 239.21 200.758 239.92C203.101 242.394 210.56 245.147 216.438 244.854" fill="#FFBE9D"/>
<path d="M216.438 244.861C216.438 244.802 215.537 244.861 213.942 244.7C211.697 244.463 209.487 243.972 207.354 243.236C205.872 242.744 204.442 242.107 203.086 241.333C202.338 240.919 201.648 240.407 201.037 239.81C200.71 239.532 200.444 239.191 200.252 238.807C200.061 238.424 199.95 238.005 199.924 237.577C200.002 237.15 200.219 236.761 200.54 236.468C200.862 236.176 201.27 235.997 201.703 235.96C202.666 235.848 203.64 236.046 204.484 236.523C205.439 237.019 206.442 237.414 207.478 237.702C208.561 237.96 209.674 238.068 210.787 238.024C215.318 237.87 219.219 235.989 222.923 235.279C224.664 234.885 226.458 234.791 228.23 235.001C229.771 235.206 231.271 235.643 232.681 236.296C234.734 237.25 236.557 238.635 238.024 240.359C239.049 241.589 239.488 242.387 239.488 242.357C239.421 242.15 239.325 241.953 239.203 241.772C238.905 241.223 238.557 240.704 238.164 240.22C236.738 238.399 234.912 236.931 232.827 235.93C231.386 235.231 229.845 234.759 228.26 234.532C226.437 234.293 224.588 234.37 222.792 234.759C219 235.491 215.106 237.307 210.743 237.453C209.68 237.492 208.616 237.388 207.581 237.145C206.581 236.867 205.612 236.487 204.689 236.011C203.737 235.493 202.646 235.288 201.571 235.425C201.032 235.517 200.527 235.749 200.107 236.099C199.894 236.282 199.719 236.506 199.594 236.757C199.468 237.008 199.394 237.282 199.375 237.563C199.396 238.065 199.521 238.558 199.742 239.01C199.962 239.462 200.273 239.864 200.656 240.191C201.311 240.817 202.05 241.35 202.852 241.772C204.248 242.547 205.719 243.178 207.244 243.653C209.426 244.366 211.688 244.806 213.978 244.963C214.6 245.001 215.223 245.001 215.845 244.963C216.046 244.953 216.245 244.919 216.438 244.861Z" fill="#EB996E"/>
<path d="M304.754 260.416C304.754 260.416 304.695 260.416 304.585 260.365L304.109 260.196L302.382 259.567C300.918 259.04 298.883 258.344 296.621 257.634C294.359 256.924 292.288 256.339 290.765 255.943L288.986 255.482L288.496 255.358C288.386 255.358 288.328 255.307 288.335 255.299H288.503L289.001 255.394C289.426 255.482 290.04 255.621 290.794 255.804C292.31 256.185 294.381 256.749 296.65 257.459C298.92 258.169 300.947 258.886 302.404 259.435C303.136 259.713 303.714 259.948 304.117 260.116L304.578 260.314L304.754 260.416Z" fill="#EB996E"/>
<path d="M241.56 200.297C246.17 200.099 250.525 198.128 253.716 194.796C256.908 191.464 258.689 187.028 258.689 182.414V161.186L259.86 93.3592L258.345 89.5381L222.623 78.2653C211.643 77.4089 204.265 92.5101 203.877 103.519C203.445 115.758 203.401 130.713 205.099 139.783C208.51 158.024 222.623 159.971 222.623 159.971L222.901 182.663C222.934 185.057 223.447 187.419 224.41 189.611C225.372 191.803 226.764 193.779 228.504 195.423C230.244 197.068 232.296 198.346 234.538 199.183C236.781 200.02 239.168 200.399 241.56 200.297Z" fill="#FFBE9D"/>
<path d="M208.62 115.414C208.631 116.028 208.882 116.613 209.318 117.045C209.754 117.477 210.341 117.722 210.955 117.727C211.255 117.741 211.555 117.695 211.837 117.591C212.119 117.488 212.378 117.33 212.598 117.125C212.818 116.921 212.995 116.674 213.119 116.401C213.243 116.127 213.311 115.832 213.319 115.531C213.306 114.919 213.055 114.336 212.619 113.905C212.183 113.475 211.597 113.231 210.984 113.226C210.684 113.21 210.384 113.254 210.102 113.357C209.819 113.459 209.56 113.616 209.34 113.821C209.12 114.025 208.942 114.271 208.819 114.544C208.695 114.818 208.627 115.114 208.62 115.414Z" fill="#263238"/>
<path d="M207.324 111.088C207.624 111.388 209.374 110.02 211.899 109.954C214.425 109.888 216.291 111.103 216.584 110.788C216.716 110.649 216.401 110.1 215.574 109.536C214.461 108.807 213.149 108.441 211.819 108.49C210.493 108.514 209.21 108.963 208.159 109.771C207.427 110.393 207.156 110.956 207.324 111.088Z" fill="#263238"/>
<path d="M233.135 115.414C233.146 116.027 233.395 116.611 233.83 117.042C234.264 117.474 234.85 117.72 235.462 117.727C235.763 117.743 236.064 117.698 236.347 117.596C236.629 117.493 236.889 117.335 237.109 117.13C237.33 116.925 237.507 116.678 237.63 116.403C237.754 116.129 237.82 115.832 237.827 115.531C237.817 114.919 237.568 114.335 237.133 113.904C236.698 113.473 236.111 113.229 235.499 113.226C235.199 113.21 234.899 113.254 234.617 113.357C234.334 113.459 234.075 113.616 233.855 113.821C233.634 114.025 233.457 114.271 233.333 114.544C233.21 114.818 233.142 115.114 233.135 115.414Z" fill="#263238"/>
<path d="M232.198 110.876C232.498 111.169 234.247 109.807 236.773 109.741C239.298 109.675 241.165 110.891 241.458 110.576C241.582 110.437 241.275 109.888 240.447 109.324C239.334 108.595 238.022 108.23 236.692 108.277C235.367 108.302 234.084 108.751 233.032 109.558C232.3 110.181 232.044 110.737 232.198 110.876Z" fill="#263238"/>
<path d="M223.538 129.879C223.538 129.74 221.964 129.505 219.41 129.249C218.766 129.205 218.151 129.095 218.026 128.656C217.952 127.991 218.085 127.318 218.407 126.731C218.97 125.15 219.556 123.496 220.178 121.761C222.638 114.682 224.402 108.878 224.116 108.775C223.831 108.673 221.598 114.338 219.146 121.409L217.448 126.409C217.228 127.141 216.826 127.99 217.184 128.949C217.283 129.175 217.433 129.375 217.623 129.534C217.812 129.693 218.035 129.806 218.275 129.864C218.634 129.954 219.003 129.996 219.373 129.988C221.942 130.054 223.531 130.025 223.538 129.879Z" fill="#263238"/>
<path d="M222.616 159.854C231.248 159.747 239.682 157.246 246.977 152.629C246.977 152.629 241.37 165.381 222.982 164.173L222.616 159.854Z" fill="#EB996E"/>
<path d="M231.268 101.016C231.539 101.697 234.057 101.302 237.029 101.58C240.001 101.858 242.431 102.597 242.812 101.968C242.973 101.668 242.541 101.031 241.553 100.394C240.24 99.6131 238.767 99.1413 237.245 99.0145C235.723 98.8876 234.192 99.1091 232.769 99.662C231.685 100.101 231.158 100.658 231.268 101.016Z" fill="#263238"/>
<path d="M208.056 103.739C208.518 104.302 210.252 103.658 212.339 103.57C214.425 103.483 216.218 103.856 216.606 103.241C216.775 102.941 216.482 102.377 215.691 101.858C214.641 101.213 213.414 100.915 212.185 101.008C210.955 101.065 209.774 101.503 208.803 102.26C208.078 102.868 207.888 103.468 208.056 103.739Z" fill="#263238"/>
<path d="M216.321 79.5171C217.17 85.2525 219.443 90.6838 222.931 95.3151C226.419 99.9464 231.012 103.63 236.29 106.03C235.972 104.566 235.66 103.102 235.353 101.638C239.876 109.119 249.48 115.385 255.658 117.918C257.569 118.701 260.014 117.998 261.749 116.886C264.179 115.334 264.325 111.85 263.813 109.009C262.224 100.123 256.954 92.1734 250.088 86.3174C243.222 80.4614 234.848 76.5525 226.188 73.932C223.897 73.2366 222.645 72.7608 220.376 73.5294C218.107 74.298 215.135 76.8819 216.233 79.0047" fill="#263238"/>
<path d="M252.76 104.457C258.001 123.232 251.069 144.102 252.855 163.514C253.25 167.84 254.824 172.847 258.469 175.226C260.27 176.397 260.665 175.658 262.737 176.068C268.029 177.093 273.029 174.875 278.314 175.9C283.086 176.829 290.677 179.56 293.686 175.731C296.694 171.903 293.225 167.401 290.282 163.653C287.339 159.906 283.387 156.699 281.937 152.154C280.371 147.271 282.062 142.03 282.794 136.95C285.297 119.609 279.134 102.041 268.886 87.8182C265.313 82.8625 259.926 78.1704 255.08 74.4445C250.234 70.7186 239.276 67.5784 233.171 67.8565C227.066 68.1347 216.899 72.9805 214.41 79.8247" fill="#263238"/>
<path d="M232.491 93.74C232.454 93.8059 232.857 94.0768 233.632 94.5233L235.016 95.3285L233.837 94.2012C230.969 91.5307 228.519 88.4436 226.569 85.0439C222.909 78.7414 222.352 72.7024 222.06 72.7756C221.964 72.7756 221.964 74.2835 222.447 76.6625C223.101 79.7471 224.232 82.7107 225.8 85.4465C227.749 88.9561 230.4 92.0261 233.589 94.4647L233.801 94.1426C232.974 93.8352 232.52 93.6961 232.491 93.74Z" fill="#455A64"/>
<path d="M265.716 171.859C265.751 171.457 265.751 171.053 265.716 170.651C265.716 169.861 265.716 168.697 265.753 167.196C265.996 162.972 266.618 158.778 267.612 154.665C268.739 149.423 270.606 143.282 271.726 136.211C272.307 132.505 272.486 128.748 272.26 125.004C272.063 120.938 271.045 116.954 269.266 113.292C267.415 109.658 264.703 106.532 261.368 104.186C258.22 101.851 254.934 100.05 251.932 98.1761C246.589 94.8891 241.672 90.9554 237.292 86.4641C234.356 83.4235 231.663 80.156 229.24 76.6919C228.384 75.4621 227.732 74.4959 227.301 73.8298C227.092 73.4776 226.847 73.1488 226.569 72.8489C226.722 73.2233 226.908 73.5834 227.125 73.9249C227.498 74.6569 228.113 75.6232 228.926 76.8529C231.263 80.4151 233.911 83.7636 236.839 86.8594C241.186 91.465 246.106 95.4946 251.479 98.8495C254.494 100.753 257.759 102.568 260.826 104.859C264.043 107.126 266.66 110.141 268.454 113.643C270.176 117.192 271.171 121.05 271.382 124.989C271.61 128.673 271.451 132.37 270.906 136.02C269.844 143.004 268.036 149.196 266.982 154.46C266.034 158.615 265.502 162.855 265.394 167.116C265.375 168.274 265.419 169.432 265.526 170.586C265.538 171.016 265.602 171.444 265.716 171.859Z" fill="#455A64"/>
<path d="M203.862 88.2426C203.211 92.9775 202.83 97.7457 202.72 102.524C206.424 99.5374 210.165 96.4849 212.968 92.6273C215.772 88.7697 217.521 83.9458 216.789 79.239C214.107 80.0279 211.68 81.5096 209.752 83.5348C207.825 85.56 206.465 88.0573 205.809 90.7753" fill="#263238"/>
<path d="M222.74 138.458C223.37 137.228 223.538 136.913 224.607 136.328C225.417 136.123 226.253 136.039 227.088 136.079C227.901 136.123 228.443 136.928 228.743 137.682C229.233 138.772 229.304 140.005 228.94 141.144C228.516 142.249 224.68 143.574 222.616 140.668" fill="#EB996E"/>
<path d="M225.895 142.593C226.105 142.58 226.315 142.58 226.525 142.593C227.08 142.567 227.615 142.376 228.062 142.044C228.67 141.493 229.061 140.743 229.167 139.929C229.253 139.445 229.215 138.947 229.058 138.482C228.901 138.016 228.629 137.597 228.267 137.264C227.475 136.643 226.491 136.319 225.485 136.349C225.081 136.365 224.685 136.466 224.322 136.647C223.96 136.827 223.641 137.083 223.385 137.396C223.043 137.839 222.819 138.36 222.733 138.911C222.717 139.123 222.678 139.331 222.616 139.534C222.556 139.324 222.543 139.104 222.579 138.89C222.62 138.294 222.825 137.721 223.172 137.235C223.423 136.902 223.736 136.621 224.095 136.408C224.514 136.163 224.986 136.023 225.471 135.998C225.995 135.978 226.52 136.045 227.023 136.196C227.563 136.345 228.063 136.612 228.487 136.979C228.932 137.364 229.251 137.874 229.402 138.443C229.552 138.954 229.579 139.493 229.482 140.017C229.391 140.48 229.23 140.926 229.006 141.342C228.774 141.799 228.412 142.178 227.965 142.431C227.519 142.683 227.007 142.799 226.496 142.762C226.285 142.755 226.079 142.698 225.895 142.593Z" fill="#263238"/>
<path d="M234.599 123.92C234.665 124 234.423 124.279 233.998 124.33C233.574 124.381 233.266 124.154 233.325 124.066C233.384 123.979 233.647 123.986 233.955 123.949C234.262 123.913 234.533 123.832 234.599 123.92Z" fill="#EB996E"/>
<path d="M238.632 123.708C238.53 123.708 238.39 123.51 238.332 123.225C238.273 122.939 238.295 122.683 238.398 122.661C238.5 122.639 238.639 122.852 238.705 123.144C238.771 123.437 238.764 123.708 238.632 123.708Z" fill="#EB996E"/>
<path d="M243.529 122.083C243.529 122.185 243.251 122.215 242.965 122.156C242.68 122.098 242.46 121.951 242.482 121.849C242.504 121.746 242.761 121.717 243.046 121.783C243.331 121.849 243.551 121.98 243.529 122.083Z" fill="#EB996E"/>
<path d="M236.692 127.99C236.59 127.99 236.502 127.755 236.502 127.47C236.502 127.184 236.59 126.95 236.692 126.95C236.795 126.95 236.883 127.177 236.883 127.47C236.883 127.763 236.795 127.99 236.692 127.99Z" fill="#EB996E"/>
<path d="M241.092 126.021C240.989 126.021 240.901 125.97 240.901 125.904C240.901 125.838 240.989 125.787 241.092 125.787C241.194 125.787 241.282 125.838 241.282 125.904C241.282 125.97 241.201 126.021 241.092 126.021Z" fill="#EB996E"/>
<path d="M209.586 124.63C209.586 124.733 209.22 124.806 208.854 124.63C208.488 124.454 208.261 124.125 208.342 124.059C208.422 123.993 208.686 124.14 209.008 124.286C209.33 124.433 209.594 124.52 209.586 124.63Z" fill="#EB996E"/>
<path d="M212.858 123.942C212.804 123.923 212.76 123.882 212.735 123.83C212.711 123.778 212.708 123.719 212.726 123.664C212.763 123.54 212.866 123.452 212.968 123.481C213.022 123.501 213.066 123.541 213.091 123.593C213.115 123.645 213.119 123.705 213.1 123.759C213.096 123.787 213.087 123.814 213.073 123.839C213.059 123.863 213.04 123.885 213.017 123.902C212.995 123.919 212.969 123.931 212.942 123.938C212.915 123.945 212.886 123.947 212.858 123.942Z" fill="#EB996E"/>
<path d="M211.109 128.685C211.006 128.685 210.897 128.524 210.867 128.305C210.838 128.085 210.867 127.888 210.999 127.873C211.131 127.858 211.211 128.027 211.248 128.254C211.285 128.481 211.219 128.671 211.109 128.685Z" fill="#EB996E"/>
<path d="M206.805 128.451C206.717 128.393 206.753 128.195 206.878 127.997C207.002 127.8 207.185 127.697 207.273 127.756C207.361 127.814 207.324 128.019 207.2 128.21C207.075 128.4 206.892 128.51 206.805 128.451Z" fill="#EB996E"/>
<path d="M190.393 292.296V326.26C190.393 329.113 189.712 331.923 188.407 334.459C187.102 336.995 185.211 339.184 182.89 340.842C179.852 343.009 176.213 344.173 172.481 344.172H127.097C123.699 344.175 120.371 343.21 117.501 341.391L115.934 340.381C113.387 338.768 111.289 336.538 109.833 333.898C108.377 331.259 107.61 328.294 107.604 325.28V292.296H190.393Z" fill="#263238"/>
<path d="M107.604 300.472H84.5973V304.469L97.8831 306.511C99.8266 306.782 101.67 307.54 103.242 308.715C104.813 309.89 106.062 311.444 106.872 313.231C107.338 314.27 107.587 315.394 107.604 316.532C107.604 316.532 112.289 316.459 113.087 310.859C113.087 310.749 113.123 310.64 113.138 310.53C113.402 308.506 113.021 306.451 112.05 304.655C111.079 302.86 109.567 301.417 107.728 300.531L107.604 300.472Z" fill="#455A64"/>
<path d="M190.393 300.501H213.415V304.513L200.129 306.555C198.179 306.824 196.329 307.583 194.753 308.763C193.177 309.942 191.926 311.502 191.118 313.297C190.652 314.336 190.403 315.459 190.386 316.598C190.386 316.598 185.708 316.525 184.903 310.932L184.859 310.596C184.595 308.572 184.976 306.516 185.947 304.721C186.918 302.926 188.43 301.483 190.269 300.596L190.393 300.501Z" fill="#455A64"/>
<path d="M190.393 300.501C190.287 300.58 190.174 300.651 190.057 300.713C189.722 300.893 189.399 301.093 189.09 301.313C187.913 302.137 186.931 303.209 186.214 304.454C185.093 306.375 184.681 308.629 185.05 310.822C185.202 312.163 185.733 313.432 186.58 314.482C187.552 315.598 188.925 316.284 190.401 316.393L190.225 316.561C190.243 315.207 190.577 313.877 191.198 312.674C191.828 311.387 192.706 310.237 193.782 309.292C194.914 308.294 196.222 307.517 197.64 307.001C199.107 306.523 200.621 306.201 202.156 306.042L213.407 304.322L213.254 304.498C213.254 303.129 213.254 301.797 213.254 300.501L213.429 300.677L196.849 300.611L192.113 300.56H190.847C190.701 300.576 190.554 300.576 190.408 300.56H190.84H192.091L196.813 300.508L213.429 300.442H213.605V300.618C213.605 301.914 213.605 303.246 213.605 304.615V304.776H213.451L202.2 306.511C200.69 306.669 199.201 306.985 197.757 307.455C196.391 307.947 195.129 308.692 194.039 309.651C193.013 310.516 192.176 311.583 191.58 312.786C190.985 313.989 190.643 315.301 190.576 316.642V316.825H190.408C189.629 316.769 188.869 316.559 188.172 316.206C187.476 315.853 186.857 315.364 186.353 314.768C185.476 313.673 184.932 312.349 184.786 310.954C184.429 308.701 184.877 306.394 186.052 304.439C186.797 303.181 187.822 302.112 189.046 301.313C189.367 301.102 189.702 300.914 190.049 300.75C190.156 300.656 190.271 300.573 190.393 300.501Z" fill="#263238"/>
<path d="M188.915 293.202C188.856 293.247 188.792 293.284 188.724 293.312L188.153 293.597L185.957 294.673L184.354 295.442C183.761 295.713 183.095 295.962 182.393 296.247C180.98 296.803 179.399 297.513 177.569 298.07L174.721 299.021C173.726 299.343 172.664 299.585 171.581 299.885C169.421 300.522 167.057 300.954 164.583 301.466C159.174 302.403 153.697 302.892 148.208 302.93C142.719 302.896 137.242 302.406 131.833 301.466C129.359 300.961 126.995 300.522 124.835 299.892C123.752 299.585 122.691 299.343 121.695 299.021L118.848 298.077C117.018 297.521 115.436 296.811 114.016 296.262C113.284 295.969 112.655 295.72 112.062 295.456L110.459 294.688L108.263 293.612L107.692 293.326L107.509 293.217C107.581 293.23 107.65 293.254 107.714 293.29L108.299 293.539C108.834 293.788 109.588 294.124 110.539 294.549L112.157 295.281C112.75 295.537 113.416 295.771 114.119 296.057C115.539 296.584 117.12 297.279 118.957 297.814L121.805 298.736C122.793 299.051 123.854 299.285 124.931 299.578C127.09 300.2 129.447 300.617 131.921 301.115C137.309 302.039 142.763 302.529 148.23 302.579C153.697 302.529 159.151 302.04 164.539 301.115C167.013 300.617 169.37 300.193 171.53 299.57C172.606 299.278 173.667 299.043 174.655 298.729L177.503 297.806C179.333 297.272 180.921 296.576 182.334 296.042C183.066 295.764 183.703 295.522 184.303 295.273L185.913 294.541L188.124 293.531L188.71 293.275L188.915 293.202Z" fill="#455A64"/>
<path d="M188.966 296.013C188.966 296.013 188.907 296.057 188.776 296.123L188.205 296.416L186.009 297.492L184.405 298.224C183.813 298.487 183.146 298.736 182.451 299.029C181.031 299.585 179.45 300.295 177.62 300.852L174.772 301.796C173.777 302.118 172.723 302.36 171.639 302.667C169.443 303.304 167.108 303.736 164.634 304.248C159.228 305.184 153.753 305.674 148.267 305.712C142.777 305.675 137.301 305.185 131.892 304.248C129.41 303.736 127.046 303.304 124.887 302.667C123.803 302.367 122.742 302.125 121.746 301.803L118.899 300.859C117.069 300.303 115.488 299.593 114.075 299.036C113.343 298.751 112.706 298.502 112.113 298.231L110.532 297.506L108.336 296.43L107.765 296.145C107.633 296.079 107.567 296.042 107.575 296.035L107.78 296.108L108.365 296.365L110.605 297.375L112.223 298.107C112.823 298.356 113.482 298.597 114.192 298.875C115.605 299.41 117.193 300.098 119.023 300.639L121.871 301.554C122.859 301.869 123.92 302.103 125.004 302.396C127.156 303.018 129.52 303.443 131.987 303.941C137.378 304.865 142.834 305.355 148.303 305.405C153.77 305.358 159.224 304.869 164.612 303.941C167.079 303.443 169.436 303.026 171.595 302.404C172.672 302.111 173.733 301.876 174.728 301.562L177.569 300.639C179.406 300.098 180.987 299.41 182.407 298.875C183.139 298.597 183.776 298.356 184.369 298.099L185.987 297.367L188.227 296.357L188.812 296.108L188.966 296.013Z" fill="#455A64"/>
<path d="M173.352 345.226C179.391 344.289 182.495 340.995 184.252 335.139C184.897 333.333 184.945 331.368 184.391 329.532C183.747 327.746 182.034 326.246 180.131 326.319C177.832 326.414 176.192 328.588 175.255 330.711C174.319 332.834 173.623 335.183 171.815 336.611C170.007 338.038 166.618 337.613 166.23 335.337C166.226 334.734 166.162 334.134 166.04 333.544C165.527 332.167 163.346 332.241 162.38 333.361C161.413 334.481 161.384 336.091 161.428 337.562C161.472 339.034 161.523 340.615 160.696 341.837C159.474 343.66 156.919 343.865 154.723 343.879L141.752 344.004C141.752 344.004 143.948 345.08 149.76 345.08C157.651 345.058 173.352 345.226 173.352 345.226Z" fill="#F25260"/>
<path d="M148.267 343.981C143.926 344.055 139.322 344.062 135.618 341.785C133.275 340.358 131.314 338.059 128.605 337.65C127.828 337.488 127.019 337.63 126.343 338.045C126.014 338.258 125.769 338.579 125.65 338.953C125.531 339.327 125.546 339.73 125.692 340.094C124.491 339.641 123.576 338.682 122.544 337.898C121.512 337.115 120.172 336.552 118.972 337.013C118.36 337.308 117.87 337.807 117.586 338.424C117.301 339.041 117.24 339.738 117.413 340.395C117.618 341.041 117.958 341.637 118.411 342.142C118.864 342.647 119.42 343.049 120.041 343.323C121.288 343.864 122.607 344.222 123.957 344.384L155.191 344.977C155.184 344.186 148.267 343.981 148.267 343.981Z" fill="#F25260"/>
<path d="M123.891 346.185L123.957 344.465L173.352 345.226V346.185H123.891Z" fill="#455A64"/>
<path d="M170.197 326.259C169.613 325.28 169.283 324.171 169.237 323.031C169.191 321.892 169.431 320.76 169.934 319.737C170.38 318.851 171.295 317.973 172.24 318.273C173.184 318.573 173.374 319.737 173.352 320.674C173.301 322.716 171.83 326.845 170.197 326.244" fill="#F25260"/>
<path d="M141.276 264.985C141.32 264.985 141.232 265.337 141.276 265.966C141.361 266.853 141.596 267.72 141.971 268.528C142.567 269.739 143.031 271.01 143.355 272.32C143.585 274.006 143.16 275.717 142.169 277.1C141.232 278.601 140.112 279.838 139.38 281.133C139.023 281.737 138.745 282.384 138.553 283.058C138.405 283.644 138.363 284.251 138.429 284.852C138.501 285.735 138.87 286.568 139.475 287.216C139.72 287.431 139.976 287.631 140.244 287.816C140.244 287.816 140.156 287.816 139.995 287.736C139.771 287.627 139.561 287.489 139.373 287.326C138.694 286.682 138.264 285.819 138.158 284.888C138.067 284.251 138.1 283.603 138.253 282.978C138.436 282.266 138.714 281.581 139.08 280.943C139.812 279.603 140.939 278.344 141.847 276.88C142.792 275.576 143.21 273.963 143.018 272.364C142.707 271.077 142.275 269.822 141.73 268.616C141.366 267.776 141.165 266.874 141.137 265.959C141.136 265.713 141.163 265.467 141.217 265.227C141.224 265.144 141.244 265.062 141.276 264.985Z" fill="#263238"/>
<path d="M148.977 264.325C149.021 264.325 148.925 264.677 148.977 265.306C149.065 266.193 149.3 267.059 149.672 267.868C150.267 269.08 150.733 270.351 151.063 271.66C151.287 273.347 150.86 275.056 149.87 276.44C148.933 277.941 147.82 279.178 147.081 280.473C146.724 281.076 146.449 281.724 146.261 282.398C146.107 282.986 146.062 283.596 146.129 284.199C146.205 285.08 146.574 285.909 147.176 286.556C147.42 286.771 147.677 286.971 147.945 287.156C147.945 287.156 147.857 287.156 147.703 287.076C147.473 286.972 147.261 286.834 147.073 286.666C146.397 286.021 145.969 285.158 145.866 284.228C145.776 283.592 145.806 282.944 145.953 282.318C146.135 281.61 146.413 280.93 146.781 280.298C147.513 278.958 148.633 277.699 149.548 276.242C150.491 274.934 150.906 273.319 150.711 271.719C150.406 270.43 149.975 269.175 149.423 267.971C149.059 267.13 148.858 266.229 148.83 265.314C148.83 265.067 148.857 264.822 148.911 264.582C148.933 264.406 148.962 264.318 148.977 264.325Z" fill="#263238"/>
<path d="M156.648 263.681C156.692 263.681 156.604 264.033 156.648 264.662C156.75 265.553 156.997 266.421 157.38 267.231C157.973 268.44 158.437 269.709 158.764 271.016C158.988 272.703 158.561 274.412 157.57 275.796C156.633 277.296 155.521 278.533 154.789 279.829C154.43 280.432 154.152 281.079 153.962 281.754C153.81 282.342 153.768 282.952 153.837 283.555C153.911 284.435 154.277 285.264 154.877 285.912C155.122 286.128 155.382 286.329 155.653 286.512C155.653 286.512 155.557 286.512 155.404 286.432C155.176 286.324 154.964 286.187 154.774 286.022C154.097 285.377 153.67 284.514 153.566 283.584C153.477 282.947 153.507 282.3 153.654 281.674C153.841 280.97 154.119 280.293 154.481 279.661C155.213 278.314 156.341 277.055 157.248 275.598C158.19 274.289 158.608 272.676 158.419 271.074C158.109 269.786 157.675 268.531 157.124 267.327C156.763 266.485 156.562 265.584 156.531 264.669C156.532 264.423 156.561 264.177 156.619 263.937C156.604 263.762 156.648 263.681 156.648 263.681Z" fill="#263238"/>
<path d="M49.776 346.448C49.776 346.448 39.9086 298.246 49.776 271.462H60.756C60.756 271.462 69.1374 299.71 60.756 346.448H49.776Z" fill="#FF725E"/>
<g opacity="0.7">
<path d="M49.776 346.448C49.776 346.448 39.9086 298.246 49.776 271.462H60.756C60.756 271.462 69.1374 299.71 60.756 346.448H49.776Z" fill="white"/>
</g>
<path d="M57.8646 246.442C59.6805 243.335 62.2711 240.751 65.3835 238.943C68.4959 237.136 72.0238 236.166 75.6229 236.128C73.9239 239.525 71.2798 242.359 68.0087 244.288C64.7375 246.218 60.9786 247.162 57.1838 247.006" fill="#455A64"/>
<path d="M60.5804 226.349C58.0882 223.748 56.3139 220.544 55.4311 217.052C54.5484 213.559 54.5873 209.897 55.5442 206.424C58.3443 208.99 60.3427 212.311 61.2986 215.986C62.2545 219.662 62.1271 223.535 60.9318 227.14" fill="#455A64"/>
<path d="M50.713 226.635C47.7651 225.445 45.1809 223.503 43.2182 221.002C41.2556 218.501 39.9832 215.529 39.5281 212.383C42.7139 213.432 45.5238 215.388 47.6124 218.013C49.7009 220.637 50.9771 223.815 51.284 227.155" fill="#455A64"/>
<path d="M48.0119 205.231C47.512 202.968 47.6146 200.613 48.3095 198.403C49.0045 196.192 50.2673 194.203 51.972 192.633C52.6551 194.985 52.6359 197.485 51.9167 199.826C51.1975 202.167 49.8097 204.246 47.9241 205.809" fill="#455A64"/>
<path d="M55.6321 265.255C55.8604 262.948 56.6896 260.742 58.037 258.857C59.3844 256.971 61.2028 255.472 63.3107 254.509C63.2308 256.954 62.4378 259.322 61.0293 261.323C59.6208 263.323 57.6583 264.868 55.3832 265.767" fill="#455A64"/>
<path d="M43.6858 185.057C43.6858 185.057 45.6622 192.443 47.968 204.572L48.8464 209.337C49.1465 210.991 49.4027 212.726 49.6955 214.52C50.3031 218.092 50.8008 221.942 51.3572 225.983C52.36 234.086 53.2311 243.016 53.7654 252.423C54.2998 261.829 54.373 270.81 54.2559 278.972C54.1461 283.057 54.0729 286.936 53.8606 290.56C53.7581 292.368 53.6995 294.125 53.5824 295.801C53.4653 297.477 53.3409 299.095 53.2238 300.632C52.2575 312.944 51.1009 320.491 51.1009 320.491C51.1009 320.491 51.1009 320.374 51.1009 320.14L51.24 319.152C51.3425 318.229 51.4816 316.904 51.6646 315.199C51.7598 314.342 51.8696 313.391 51.9794 312.344C52.0892 311.297 52.1843 310.148 52.2941 308.948C52.4991 306.503 52.7919 303.728 52.9749 300.654C53.0774 299.107 53.1872 297.497 53.3043 295.823C53.4141 294.139 53.4653 292.39 53.5532 290.582C53.7581 286.958 53.8167 283.086 53.9192 279.009C54.0143 270.854 53.9191 261.88 53.3994 252.481C52.8797 243.082 52.0013 234.181 51.0204 226.063C50.4787 222.023 49.9956 218.18 49.3954 214.6C49.1099 212.814 48.861 211.079 48.5682 209.418C48.2754 207.756 47.99 206.175 47.7191 204.652C47.1994 201.614 46.6065 198.884 46.138 196.483C45.8891 195.283 45.6622 194.163 45.4572 193.138C45.2523 192.113 45.018 191.176 44.8277 190.334L43.9786 186.455C43.8834 186.023 43.8175 185.723 43.759 185.445C43.7004 185.166 43.6858 185.057 43.6858 185.057Z" fill="#263238"/>
<path d="M67.9515 202.625C67.9407 202.716 67.9186 202.804 67.8857 202.889C67.8271 203.072 67.7539 203.321 67.6514 203.621L66.7291 206.476L66.0483 208.54C65.8214 209.272 65.5725 210.121 65.3163 211.007C64.7966 212.785 64.1525 214.791 63.5669 217.053C63.2667 218.18 62.9447 219.359 62.6153 220.589C62.2859 221.818 62.0004 223.107 61.671 224.439C60.9975 227.096 60.4193 229.965 59.7824 232.981C58.5966 239.028 57.5059 245.718 56.708 252.789C55.9101 259.86 55.5588 266.631 55.3977 272.795C55.3977 275.877 55.3026 278.804 55.3977 281.542C55.3977 282.911 55.3977 284.236 55.4783 285.51C55.5588 286.783 55.5881 287.998 55.6393 289.17C55.7125 291.505 55.9101 293.606 56.0273 295.45C56.1005 296.372 56.159 297.236 56.2176 298.027C56.2761 298.817 56.3713 299.535 56.4299 300.223C56.5543 301.504 56.6495 302.507 56.7153 303.209C56.7153 303.539 56.7593 303.795 56.7812 303.993C56.7877 304.08 56.7877 304.168 56.7812 304.256C56.7564 304.17 56.7393 304.082 56.73 303.993C56.73 303.802 56.6714 303.546 56.6348 303.224C56.547 302.492 56.4299 301.518 56.2761 300.237L56.0346 298.078C55.9614 297.287 55.8882 296.431 55.8077 295.509C55.6686 293.657 55.4563 291.556 55.3611 289.221C55.3026 288.057 55.2367 286.835 55.1781 285.561C55.1196 284.287 55.1049 282.962 55.0683 281.593C54.9805 278.848 55.0683 275.913 55.0683 272.809C55.2074 266.639 55.5881 259.853 56.3493 252.767C57.1106 245.681 58.2525 238.984 59.4603 232.93C60.1118 229.914 60.6974 227.074 61.3855 224.388C61.7222 223.055 62.015 221.76 62.3517 220.53C62.6885 219.3 63.0179 218.129 63.3326 217.002C63.9329 214.747 64.5917 212.741 65.1333 210.97C65.4115 210.084 65.675 209.264 65.9093 208.503C66.1435 207.742 66.407 207.039 66.6413 206.454C67.0731 205.238 67.3733 204.258 67.6368 203.613C67.7539 203.306 67.8417 203.064 67.9076 202.881C67.9121 202.795 67.9269 202.709 67.9515 202.625Z" fill="#263238"/>
<path d="M66.3558 208.078C63.9549 206.058 63.8085 202.295 64.987 199.389C66.1655 196.483 68.3835 194.148 70.2354 191.615C72.0874 189.083 73.6612 186.052 73.2366 182.949C73.0577 182.231 73.0057 181.488 73.0829 180.753C73.2366 180.021 73.9613 179.34 74.6714 179.559C75.3814 179.779 75.5571 180.496 75.6888 181.141C76.0991 183.145 76.2224 185.199 76.0548 187.238C76.5351 186.051 77.2788 184.989 78.2299 184.132C79.181 183.274 80.3146 182.645 81.5448 182.29C81.8093 183.483 81.7682 184.724 81.4252 185.898C81.0823 187.071 80.4487 188.139 79.5831 189.002C81.1715 188.343 82.8697 187.663 84.5607 187.992C86.2516 188.321 87.7595 190.108 87.1227 191.711C86.3907 193.526 83.9238 193.563 81.9987 193.907C79.8446 194.3 77.8994 195.443 76.5087 197.135C74.7665 199.258 74.0711 202.032 72.6584 204.389C71.2456 206.746 68.5445 208.781 65.9386 207.946" fill="#F25260"/>
<path d="M45.75 193.189C48.4072 191.535 49.0806 187.824 48.3194 184.786C47.5581 181.748 45.6988 179.12 44.2202 176.353C42.7415 173.587 41.6069 170.366 42.4634 167.35C42.7467 166.651 42.9029 165.907 42.9245 165.154C42.8733 164.422 42.2584 163.631 41.5191 163.748C40.7798 163.866 40.5089 164.554 40.2893 165.212C39.6008 167.138 39.1916 169.152 39.0742 171.193C38.7665 169.949 38.1794 168.792 37.3575 167.809C36.5356 166.826 35.5005 166.043 34.3308 165.52C33.9012 166.665 33.7679 167.9 33.9432 169.111C34.1185 170.322 34.5968 171.468 35.3337 172.445C33.8697 171.566 32.2593 170.659 30.5464 170.746C28.8335 170.834 27.084 172.393 27.4866 174.062C27.9405 175.966 30.4146 176.353 32.252 176.99C34.3278 177.687 36.0925 179.091 37.2369 180.958C38.657 183.3 38.9644 186.148 40.0258 188.68C41.0872 191.213 43.4808 193.621 46.1819 193.146" fill="#F25260"/>
<path d="M42.6097 229.431C42.7201 229.577 42.8111 229.737 42.8806 229.907L43.6126 231.298C43.92 231.905 44.286 232.652 44.674 233.537C45.0619 234.423 45.5451 235.411 45.9989 236.539C46.4527 237.666 46.9725 238.888 47.4629 240.235C47.9533 241.582 48.4584 243.017 48.9781 244.539C49.959 247.599 50.9179 251.01 51.7305 254.626C52.543 258.242 53.092 261.749 53.4873 264.94C53.6629 266.536 53.8459 268.059 53.9338 269.486C54.0216 270.913 54.1168 272.238 54.168 273.453C54.2193 274.669 54.2266 275.766 54.2412 276.733C54.2559 277.699 54.2412 278.526 54.2412 279.207C54.2412 279.888 54.168 280.356 54.168 280.773C54.168 281.191 54.168 281.315 54.1241 281.315C54.1038 281.133 54.1038 280.949 54.1241 280.766C54.1241 280.378 54.1241 279.858 54.1241 279.207C54.1241 278.555 54.1241 277.699 54.0802 276.733C54.0363 275.766 54.0363 274.676 53.9484 273.468C53.8606 272.26 53.8093 270.928 53.6703 269.508C53.5312 268.088 53.3775 266.58 53.1945 264.984C52.7772 261.807 52.1989 258.323 51.4157 254.736C50.6325 251.149 49.6516 247.731 48.6927 244.671C48.1876 243.149 47.7191 241.699 47.2287 240.367C46.7382 239.035 46.2624 237.79 45.8086 236.663C45.3547 235.536 44.9229 234.533 44.5495 233.647C44.1762 232.762 43.8175 232 43.5467 231.385L42.9025 229.958C42.7884 229.792 42.6904 229.615 42.6097 229.431Z" fill="#263238"/>
<path d="M44.4252 236.48C45.7501 235.404 45.8892 233.355 45.245 231.766C44.6009 230.178 43.4443 228.882 42.4561 227.484C41.4679 226.086 40.6407 224.424 40.8969 222.741C40.9996 222.347 41.0343 221.938 40.9994 221.533C40.9189 221.13 40.5309 220.757 40.143 220.867C39.755 220.976 39.6525 221.372 39.572 221.723C39.3318 222.811 39.248 223.927 39.3231 225.039C39.0749 224.39 38.6823 223.805 38.1751 223.329C37.6679 222.854 37.0592 222.5 36.3951 222.294C36.2428 222.94 36.2555 223.614 36.432 224.253C36.6085 224.893 36.9432 225.478 37.4053 225.954C36.5786 225.499 35.638 225.293 34.6969 225.361C33.7819 225.522 32.9401 226.488 33.2329 227.359C33.6135 228.362 34.9604 228.399 36.0072 228.604C37.1757 228.843 38.2241 229.483 38.9718 230.412C39.9014 231.583 40.2601 233.098 41.0067 234.394C41.7534 235.69 43.2027 236.832 44.6667 236.392" fill="#F25260"/>
</svg>
