<svg xmlns="http://www.w3.org/2000/svg" version="1.1" viewBox="-5.0 -10.0 110.0 135.0">
 <path d="m49.969 53.125c-12.938 0-23.438-10.5-23.438-23.438s10.5-23.438 23.438-23.438 23.438 10.5 23.438 23.438-10.5 23.438-23.438 23.438zm0-40.625c-9.4688 0-17.188 7.7188-17.188 17.188s7.7188 17.188 17.188 17.188 17.188-7.7188 17.188-17.188-7.7188-17.188-17.188-17.188zm0 81.219c-14.312 0-28.594-5.4375-39.5-16.344-2.75-2.75-4.25-6.4062-4.25-10.281s1.5-7.5625 4.25-10.281c2.7812-2.75 6.4375-4.2812 10.312-4.2812 3.9062 0 7.5625 1.5312 10.281 4.2812 5.0312 5.0312 11.75 7.8125 18.906 7.8125s13.844-2.7812 18.875-7.8125c2.75-2.75 6.4062-4.25 10.281-4.25s7.5625 1.5 10.281 4.25c2.75 2.75 4.25 6.4062 4.25 10.281s-1.5 7.5625-4.25 10.281c-10.875 10.875-25.188 16.344-39.5 16.344zm-29.188-34.938c-2.2188 0-4.3125 0.875-5.875 2.4375-1.5938 1.5938-2.4375 3.6562-2.4375 5.9062s0.875 4.3125 2.4375 5.875c19.344 19.344 50.812 19.344 70.156 0 1.5625-1.5625 2.4375-3.6562 2.4375-5.875s-0.875-4.3125-2.4375-5.875c-3.125-3.125-8.625-3.125-11.75 0-6.2188 6.2188-14.5 9.6562-23.312 9.6562s-17.094-3.4375-23.312-9.6562c-1.5625-1.5625-3.6562-2.4375-5.875-2.4375z"/>
<text x="0.0" y="117.5" font-size="5.0" font-weight="bold" font-family="Arbeit Regular, Helvetica, Arial-Unicode, Arial, Sans-serif" fill="#000000">Created by SEFEICN</text><text x="0.0" y="122.5" font-size="5.0" font-weight="bold" font-family="Arbeit Regular, Helvetica, Arial-Unicode, Arial, Sans-serif" fill="#000000">from Noun Project</text></svg>